<svg width="58" height="57" viewBox="0 0 58 57" fill="none" xmlns="http://www.w3.org/2000/svg">
<path d="M49.2999 2.84998H8.6999C5.5099 2.84998 2.8999 5.41498 2.8999 8.54998V48.45C2.8999 51.5878 5.5099 54.15 8.6999 54.15H28.9999V34.2H23.1999V27.1462H28.9999V21.3037C28.9999 15.1363 32.5147 10.8043 39.9213 10.8043L45.15 10.81V18.2343H41.6787C38.7961 18.2343 37.6999 20.3604 37.6999 22.3326V27.1491H45.1471L43.4999 34.2H37.6999V54.15H49.2999C52.4899 54.15 55.0999 51.5878 55.0999 48.45V8.54998C55.0999 5.41498 52.4899 2.84998 49.2999 2.84998Z" fill="white"/>
</svg>
