<svg width="58" height="57" viewBox="0 0 58 57" fill="none" xmlns="http://www.w3.org/2000/svg">
<g clip-path="url(#clip0_242_690)">
<path d="M29 0C21.1301 0 20.1405 0.035625 17.0484 0.171C13.9563 0.3135 11.8501 0.790875 10.005 1.49625C8.06869 2.20991 6.31526 3.33236 4.86838 4.78444C3.39082 6.20638 2.24868 7.92957 1.5225 9.8325C0.80475 11.6423 0.315375 13.7156 0.174 16.7437C0.03625 19.7897 0 20.7587 0 28.5036C0 36.2413 0.03625 37.2103 0.174 40.2491C0.319 43.2844 0.80475 45.3542 1.5225 47.1675C2.26562 49.0414 3.25525 50.6302 4.86838 52.2156C6.47788 53.8009 8.09463 54.777 10.0014 55.5037C11.8501 56.2091 13.9526 56.6901 17.0411 56.829C20.1369 56.9644 21.1229 57 29 57C36.8771 57 37.8595 56.9644 40.9553 56.829C44.0401 56.6865 46.1535 56.2091 47.9986 55.5037C49.9336 54.7896 51.6858 53.6672 53.1316 52.2156C54.7447 50.6302 55.7344 49.0414 56.4775 47.1675C57.1916 45.3542 57.681 43.2844 57.826 40.2491C57.9637 37.2103 58 36.2413 58 28.5C58 20.7587 57.9637 19.7897 57.826 16.7473C57.681 13.7156 57.1916 11.6423 56.4775 9.8325C55.7513 7.92957 54.6092 6.20638 53.1316 4.78444C51.6847 3.33236 49.9313 2.20991 47.995 1.49625C46.1462 0.790875 44.0365 0.309938 40.9516 0.171C37.8559 0.035625 36.8735 0 28.9928 0H29ZM26.4009 5.13713H29.0036C36.7466 5.13713 37.6637 5.16206 40.7196 5.301C43.5471 5.42569 45.0841 5.89238 46.1064 6.28069C47.4585 6.79725 48.4264 7.41712 49.4414 8.41462C50.4564 9.41212 51.0835 10.3598 51.6091 11.6921C52.0079 12.6932 52.4791 14.2037 52.606 16.9824C52.7474 19.9856 52.7764 20.8869 52.7764 28.4929C52.7764 36.0988 52.7474 37.0037 52.606 40.0069C52.4791 42.7856 52.0043 44.2926 51.6091 45.2972C51.1409 46.533 50.3992 47.6513 49.4377 48.5711C48.4227 49.5686 47.4585 50.1849 46.1028 50.7015C45.0878 51.0934 43.5507 51.5565 40.7196 51.6848C37.6637 51.8201 36.7466 51.8522 29.0036 51.8522C21.2606 51.8522 20.3399 51.8201 17.284 51.6848C14.4565 51.5565 12.9231 51.0934 11.9009 50.7015C10.6424 50.2429 9.50329 49.5152 8.56587 48.5711C7.60262 47.6506 6.85969 46.5311 6.39088 45.2936C5.99575 44.2926 5.52088 42.7821 5.394 40.0033C5.25625 37.0001 5.22725 36.0988 5.22725 28.4857C5.22725 20.8727 5.25625 19.9785 5.394 16.9753C5.5245 14.1966 5.99575 12.6861 6.3945 11.6814C6.92013 10.3526 7.55087 9.40144 8.56587 8.40394C9.58087 7.40644 10.5451 6.79013 11.9009 6.27356C12.9231 5.88169 14.4565 5.41856 17.284 5.29031C19.9593 5.16919 20.996 5.13356 26.4009 5.13V5.13713ZM44.4824 9.86812C44.0254 9.86812 43.5728 9.95659 43.1506 10.1285C42.7284 10.3003 42.3448 10.5522 42.0216 10.8698C41.6985 11.1874 41.4422 11.5644 41.2673 11.9793C41.0924 12.3943 41.0024 12.839 41.0024 13.2881C41.0024 13.7372 41.0924 14.182 41.2673 14.5969C41.4422 15.0118 41.6985 15.3889 42.0216 15.7064C42.3448 16.024 42.7284 16.2759 43.1506 16.4478C43.5728 16.6197 44.0254 16.7081 44.4824 16.7081C45.4053 16.7081 46.2905 16.3478 46.9431 15.7064C47.5957 15.0651 47.9624 14.1952 47.9624 13.2881C47.9624 12.3811 47.5957 11.5112 46.9431 10.8698C46.2905 10.2284 45.4053 9.86812 44.4824 9.86812ZM29.0036 13.8652C27.0283 13.835 25.0665 14.1912 23.2325 14.9131C21.3986 15.6351 19.7291 16.7084 18.3213 18.0705C16.9135 19.4326 15.7954 21.0564 15.0323 22.8472C14.2692 24.6381 13.8761 26.5602 13.8761 28.5018C13.8761 30.4433 14.2692 32.3655 15.0323 34.1563C15.7954 35.9472 16.9135 37.5709 18.3213 38.9331C19.7291 40.2952 21.3986 41.3685 23.2325 42.0904C25.0665 42.8124 27.0283 43.1686 29.0036 43.1383C32.9133 43.0784 36.6423 41.5099 39.3855 38.7716C42.1288 36.0332 43.6664 32.3446 43.6664 28.5018C43.6664 24.659 42.1288 20.9703 39.3855 18.232C36.6423 15.4936 32.9133 13.9252 29.0036 13.8652ZM29.0036 18.9988C30.2732 18.9988 31.5304 19.2446 32.7034 19.722C33.8763 20.1995 34.9421 20.8994 35.8398 21.7816C36.7376 22.6639 37.4497 23.7113 37.9356 24.8641C38.4214 26.0168 38.6715 27.2523 38.6715 28.5C38.6715 29.7477 38.4214 30.9832 37.9356 32.1359C37.4497 33.2887 36.7376 34.3361 35.8398 35.2184C34.9421 36.1006 33.8763 36.8005 32.7034 37.278C31.5304 37.7554 30.2732 38.0012 29.0036 38.0012C26.4395 38.0012 23.9805 37.0002 22.1674 35.2184C20.3543 33.4365 19.3358 31.0199 19.3358 28.5C19.3358 25.9801 20.3543 23.5635 22.1674 21.7816C23.9805 19.9998 26.4395 18.9988 29.0036 18.9988Z" fill="white"/>
</g>
<defs>
<clipPath id="clip0_242_690">
<rect width="58" height="57" fill="white"/>
</clipPath>
</defs>
</svg>
