<svg width="169" height="102" viewBox="0 0 169 102" fill="none" xmlns="http://www.w3.org/2000/svg">
<g clip-path="url(#clip0_236_42)">
<path d="M169 34.9146C166.934 35.3682 165.01 36.1974 163.122 37.1185C160.899 38.2037 158.696 39.3335 156.264 39.904C155.946 39.9791 155.789 40.1489 155.8 40.4967C155.825 41.3009 155.8 42.1051 155.837 42.9093C155.901 44.2561 155.518 45.4277 154.516 46.3515C152.933 47.8124 151.042 48.7057 148.931 49.0591C147.024 49.3791 145.365 48.6083 143.81 47.6037C143.355 47.3115 142.978 46.9025 142.525 46.6019C142.344 46.4795 142.059 46.4739 141.822 46.4795C141.665 46.4823 141.498 46.5825 141.361 46.6743C139.789 47.7345 137.99 48.2799 136.265 49.0062C133.832 50.0302 131.487 51.2602 129.069 52.3232C124.268 54.4353 119.432 56.4722 114.632 58.5843C111.356 60.0257 108.134 61.5868 104.853 63.0143C102.588 63.9994 100.268 64.8648 97.9582 65.7442C97.5617 65.8972 97.436 66.092 97.4556 66.4705C97.5924 68.9137 97.0507 71.304 96.9054 73.725C96.8775 74.173 96.7044 74.3121 96.2464 74.301C94.8586 74.2704 93.468 74.2871 92.0773 74.2898C91.3318 74.2898 91.1419 74.4874 91.1977 75.236C91.3066 76.6579 91.7004 78.0187 92.4069 79.2403C94.4286 82.7298 94.0795 86.2026 92.4348 89.6643C91.6641 91.2866 90.751 92.8393 89.9272 94.4338C88.7683 96.6795 87.6346 98.939 86.4869 101.19C86.3613 101.435 86.23 101.677 86.0625 101.994C85.8838 101.808 85.733 101.694 85.6436 101.546C83.7392 98.4326 81.7677 95.3577 79.9638 92.1882C78.8329 90.1986 78.0817 88.0169 77.8109 85.7268C77.6964 84.75 77.7215 83.7483 77.7774 82.7632C77.836 81.7558 78.2158 80.8348 78.8162 80.0139C79.369 79.257 79.8773 78.4611 80.4916 77.7599C81.2735 76.8666 81.0836 75.8537 81.0585 74.788C79.7376 74.7407 78.4503 74.7156 77.163 74.6405C76.1717 74.582 75.186 74.4373 74.1919 74.3733C73.7004 74.3427 73.5887 74.109 73.5692 73.6693C73.4743 71.5962 73.3402 69.5259 73.2481 67.4527C73.2313 67.091 73.0889 66.9379 72.7761 66.8016C63.6617 62.8195 54.4774 58.9905 45.4914 54.7219C44.8855 54.4353 44.2153 54.2878 43.5954 54.0234C41.9087 53.3055 40.1942 52.6376 38.5662 51.8056C36.4719 50.7343 34.319 49.8577 32.0766 49.1453C30.929 48.7808 29.865 48.1547 28.7676 47.6371C28.5135 47.5175 28.2817 47.3533 28.0332 47.2225C27.0503 46.7105 26.7794 46.7327 26.0171 47.5397C25.09 48.522 23.9395 48.9506 22.6271 49.1064C20.1251 49.3986 17.7543 49.0146 15.5902 47.7206C13.5517 46.499 12.647 44.3786 13.0603 42.0439C13.2278 41.095 13.2474 41.0532 12.4124 40.6637C9.30447 39.2167 6.18533 37.7975 3.069 36.3727C2.20055 35.9748 1.33211 35.5741 0.455291 35.1956C0.0699373 35.0315 -0.0808533 34.8395 0.0252586 34.3859C0.862984 30.8602 1.68116 27.3289 2.477 23.7921C2.58591 23.3052 2.83164 23.141 3.27284 23.1382C4.34234 23.1326 5.41183 23.1298 6.48412 23.1271C8.50863 23.1271 10.5359 23.1271 12.5604 23.1271C13.7975 23.1271 15.0345 23.0825 16.266 23.141C16.5703 23.1549 17.0283 23.4332 17.1288 23.6947C17.5086 24.6993 17.7823 25.7484 18.0699 26.7863C18.1872 27.2121 18.2402 27.6573 18.324 28.0942C18.377 28.0942 18.4273 28.0942 18.4804 28.0914C18.4804 27.6267 18.4664 27.162 18.4804 26.7001C18.5194 25.5842 18.5641 24.4711 18.6256 23.358C18.6507 22.9184 18.9244 22.7792 19.3572 22.7876C23.4844 22.8711 27.6144 22.9406 31.7416 23.0185C32.1911 23.0269 32.6407 23.1104 33.0903 23.0992C33.4729 23.0881 33.6627 23.269 33.8303 23.5723C34.4642 24.7299 34.6345 26.0127 34.8691 27.2789C34.9082 27.4903 34.9528 27.699 34.9947 27.9105L35.1734 27.9161C35.2544 27.2232 35.3521 26.5331 35.4136 25.8374C35.4806 25.0944 35.4946 24.3459 35.5728 23.6029C35.6537 22.8321 35.8324 22.7347 36.5864 22.8182C37.4241 22.91 38.2674 22.9991 39.1107 23.0074C41.945 23.0297 44.7822 22.9963 47.6165 23.0269C48.5519 23.038 49.4846 23.1771 50.4172 23.2606C50.7998 23.294 50.9534 23.525 51.0065 23.8895C51.1377 24.7577 51.2941 25.6231 51.4532 26.4858C51.5035 26.7529 51.5956 27.0117 51.6683 27.2733C51.7213 27.2789 51.7716 27.2844 51.8246 27.29C52.0368 26.6027 52.263 25.9181 52.4585 25.2252C52.6065 24.7049 52.7266 24.1761 52.8411 23.6446C52.9053 23.3441 53.0477 23.2578 53.3688 23.2189C57.0213 22.7848 60.685 23.0853 64.343 23.0158C64.6809 23.0102 65.0188 23.0213 65.3567 23.0102C66.6021 22.9768 67.4733 23.6335 67.6884 24.8663C67.8782 25.9515 67.9899 27.0479 68.258 28.1721C68.325 27.9662 68.406 27.7603 68.4591 27.5488C68.7327 26.4607 68.998 25.3699 69.2689 24.2847C69.4811 23.4415 69.9726 23.0547 70.8941 22.9629C74.4907 22.6095 78.0901 22.6262 81.6951 22.7542C82.2397 22.7737 82.7842 22.8015 83.3287 22.782C83.6917 22.7681 83.8593 22.8766 83.9486 23.2412C84.1357 24.0231 84.3703 24.7939 84.5909 25.5675C84.6328 25.7205 84.6914 25.8652 84.7445 26.0155C84.7919 26.0155 84.8394 26.0155 84.8869 26.0127C84.9958 25.1946 85.1047 24.3765 85.2136 23.5584C85.3197 22.757 85.4146 22.6457 86.23 22.6345C88.9498 22.5983 91.6752 22.4843 94.3923 22.5817C96.3162 22.6512 98.2263 23.0213 100.145 23.2439C100.536 23.2885 100.619 23.5194 100.642 23.8533C100.712 24.8607 100.787 25.8652 100.885 26.8698C100.913 27.1536 101.021 27.4263 101.094 27.7046C101.169 27.7046 101.242 27.7018 101.317 27.699C101.396 26.9143 101.549 26.1296 101.53 25.3477C101.507 24.3904 101.971 23.6697 102.468 22.9406C102.535 22.8432 102.725 22.7848 102.859 22.7792C106.028 22.7041 109.195 22.6011 112.364 22.5844C113.716 22.5761 115.048 22.8321 116.327 23.3302C116.737 23.4888 116.966 23.7198 117.067 24.1511C117.257 24.9692 117.491 25.779 117.712 26.5887C117.759 26.7613 117.818 26.9282 117.868 27.098L118.027 27.0868C118.145 26.1992 118.284 25.3115 118.374 24.421C118.449 23.6836 118.619 23.4387 119.334 23.2356C121.602 22.5928 123.919 22.5176 126.257 22.5872C128.225 22.6457 130.194 22.6512 132.163 22.7041C132.369 22.7097 132.626 22.8377 132.766 22.9935C133.405 23.7003 133.648 24.5852 133.81 25.4951C133.966 26.355 134.103 27.2149 134.352 28.0942C134.405 27.9022 134.475 27.713 134.511 27.5182C134.701 26.4524 134.86 25.3783 135.075 24.3181C135.296 23.2133 135.913 22.7403 137.027 22.7403C140.691 22.7403 144.351 22.7403 148.015 22.7403C148.54 22.7403 149.065 22.7236 149.59 22.6985C150.017 22.679 150.243 22.8599 150.336 23.2829C150.514 24.1038 150.729 24.9163 150.93 25.7317C150.975 25.907 151.034 26.0823 151.21 26.2715C151.274 26.0934 151.344 25.9153 151.399 25.7345C151.662 24.8579 151.933 23.9841 152.176 23.102C152.26 22.7987 152.394 22.6763 152.718 22.6763C156.848 22.654 160.977 22.6206 165.107 22.59C165.144 22.59 165.183 22.59 165.219 22.5928C166.303 22.6596 166.381 22.6429 166.641 23.7031C167.238 26.1519 167.749 28.6201 168.302 31.0772C168.523 32.0568 168.76 33.0335 168.989 34.013V34.9118L169 34.9146ZM89.2961 64.0161C89.9132 64.0161 90.4354 63.9883 90.952 64.0217C91.6948 64.0718 92.2644 63.7879 92.8313 63.3176C94.705 61.7621 96.5815 60.2066 98.525 58.7401C103.94 54.6523 109.376 50.5951 114.833 46.563C115.528 46.0482 115.732 45.6085 115.536 44.7236C114.777 41.2926 115.497 38.2344 118.136 35.755C118.237 35.6604 118.318 35.5491 118.452 35.3932C117.737 35.3403 117.103 35.2485 116.472 35.2513C111.895 35.2819 107.316 35.3237 102.739 35.3904C102.504 35.3932 102.18 35.6103 102.06 35.819C101.521 36.7595 101.033 37.7307 100.538 38.6963C96.7463 46.14 93.4819 53.8175 90.3098 61.5367C89.9858 62.327 89.6647 63.1201 89.2989 64.0161H89.2961ZM79.6846 64.2248C79.5841 63.9215 79.5478 63.7963 79.5003 63.6766C75.6859 54.2766 71.5782 45.0075 67.1969 35.8551C67.0126 35.4711 66.792 35.3654 66.3815 35.3654C61.2351 35.3793 56.0914 35.3737 50.945 35.3765C50.7663 35.3765 50.5904 35.396 50.3893 35.4099C50.42 35.5157 50.4172 35.5824 50.4508 35.6158C50.6714 35.844 50.8948 36.0722 51.1265 36.2893C52.6372 37.7112 53.7374 39.3669 54.106 41.4456C54.3294 42.7117 54.3574 43.9417 53.4638 45.0102C53.3493 45.1466 53.2767 45.3219 53.1762 45.4972C53.4303 45.7031 53.6425 45.884 53.8631 46.0565C58.2249 49.4737 62.8938 52.4957 67.0238 56.219C69.2242 58.203 71.9384 59.4358 74.4684 60.9357C74.8816 61.1805 75.2279 61.5339 75.616 61.8206C76.4845 62.4661 77.339 63.134 78.2465 63.7239C78.6179 63.966 79.1066 64.0328 79.6846 64.2276V64.2248ZM89.4329 35.4071C90.0333 36.1863 90.6783 36.804 91.0581 37.5526C92.4878 40.3743 92.2421 43.143 90.5974 45.8228C87.6625 50.609 80.0169 50.5478 77.3138 45.5334C76.6939 44.3841 76.0656 43.1904 76.2667 41.8157C76.4063 40.8557 76.6213 39.9012 76.8838 38.9662C77.2915 37.5164 78.1934 36.4646 79.6287 35.9052C79.8745 35.8078 80.109 35.6826 80.3492 35.5685C80.3352 35.5351 80.3213 35.5017 80.3073 35.4684H70.5338C70.6427 35.7856 70.707 35.9971 70.7852 36.203C72.9325 41.8936 75.2642 47.5091 77.8584 53.0133C79.5506 56.6002 81.321 60.1537 83.0411 63.7267C83.231 64.1218 83.4544 64.2777 83.9123 64.2165C84.5406 64.1302 85.1857 64.0912 85.8195 64.1135C86.297 64.1302 86.5093 63.9577 86.6656 63.5208C88.2741 58.9822 90.3181 54.6273 92.3538 50.2696C94.5151 45.6391 96.6122 40.9837 98.2933 36.1529C98.3631 35.9525 98.4078 35.7411 98.4832 35.4544C95.4199 35.2318 92.4432 35.0287 89.4273 35.4099L89.4329 35.4071ZM28.1449 44.2533C29.9656 45.4193 72.6533 63.9187 73.5497 63.8742C73.0163 63.4735 72.469 63.0867 71.891 62.7555C71.2571 62.3938 70.559 62.135 69.9558 61.7315C68.7439 60.9217 67.5711 60.0563 66.3927 59.1965C64.0163 57.4601 61.6623 55.693 59.2748 53.9705C57.7194 52.8491 56.2339 51.6665 54.9047 50.2779C54.2875 49.6323 53.5336 49.1203 52.8411 48.5443C51.9252 47.7818 50.9897 47.6399 49.9788 48.3968C48.6022 49.4292 47.0803 49.6017 45.3937 49.2984C42.3025 48.7446 40.0825 47.2141 39.1163 44.1532C38.5969 42.5086 38.6584 40.8306 39.0828 39.1721C39.1945 38.7408 39.0828 38.4653 38.7673 38.1954C37.5749 37.1741 36.1927 36.5286 34.6848 36.1418C31.5405 35.332 28.3292 35.3515 25.1179 35.4266C24.9839 35.4294 24.8499 35.4684 24.6041 35.5101C27.8098 37.6945 28.9938 40.5885 28.1421 44.2478L28.1449 44.2533ZM143.963 35.2763C141.095 35.0927 138.306 35.0788 135.55 35.6631C133.989 35.9943 132.54 36.5369 131.288 37.5776C130.392 38.3206 129.943 39.1053 130.093 40.3603C130.35 42.503 129.898 44.5567 128.471 46.2569C126.773 48.2827 124.67 49.457 121.892 49.2093C120.755 49.1092 119.828 48.5665 118.837 48.1436C118.429 47.9683 118.131 47.9766 117.768 48.2298C114.931 50.1916 112.04 52.0839 109.248 54.1013C105.601 56.7366 102.024 59.4664 98.4245 62.1656C98.1425 62.3771 97.9079 62.6442 97.651 62.8863C98.0392 62.8557 98.3491 62.7388 98.6563 62.6081C101.828 61.2612 104.992 59.8894 108.176 58.5676C110.111 57.7634 112.113 57.1067 114.026 56.2551C118.731 54.1598 123.422 52.0254 128.086 49.8355C132.358 47.8291 136.583 45.7254 140.83 43.669C141.179 43.4992 141.294 43.3184 141.199 42.8926C140.657 40.3882 141.21 38.1481 142.955 36.2364C143.268 35.8941 143.625 35.5936 143.963 35.2736V35.2763ZM165.906 32.4519C165.861 32.0818 165.842 31.7813 165.783 31.4891C165.401 29.5273 164.99 27.571 164.641 25.6037C164.563 25.1557 164.395 25.0722 163.993 25.0722C160.972 25.0833 157.948 25.0777 154.926 25.0777C154.01 25.0777 153.709 25.3087 153.575 26.2075C153.296 28.0552 153.036 29.9029 152.779 31.7534C152.698 32.3378 152.807 32.4491 153.382 32.4491C157.381 32.4491 161.38 32.4491 165.378 32.4491H165.901L165.906 32.4519ZM33.5957 32.5799C33.6041 32.4352 33.6236 32.3601 33.6125 32.2905C33.2495 30.3064 32.8669 28.3363 32.0096 26.4802C31.7276 25.8736 31.3618 25.612 30.7419 25.6092C27.7568 25.6009 24.7745 25.5925 21.7894 25.6092C21.647 25.6092 21.4068 25.8318 21.3761 25.9849C21.1304 27.2121 20.907 28.442 20.7059 29.6775C20.5523 30.6292 20.4434 31.5865 20.3066 32.5883C24.7996 32.9556 29.1921 32.911 33.5957 32.5799ZM103.493 32.6383C107.829 32.8359 112.068 32.6272 116.36 32.4992C116.335 32.1375 116.352 31.8536 116.293 31.5865C115.874 29.6553 115.444 27.7241 114.995 25.7985C114.964 25.6705 114.718 25.5091 114.573 25.5091C111.309 25.4924 108.044 25.4924 104.78 25.5091C104.626 25.5091 104.375 25.6621 104.336 25.7929C103.658 27.9912 103.537 30.2591 103.496 32.6411L103.493 32.6383ZM99.4745 32.6745C99.1813 30.287 98.8881 28.1081 98.2598 25.9849C98.162 25.6565 97.9833 25.5619 97.651 25.5619C94.4453 25.548 91.2368 25.523 88.0311 25.4896C87.643 25.484 87.5034 25.651 87.4587 26.0072C87.1934 28.0274 86.9253 30.0449 86.6349 32.0623C86.5651 32.5437 86.7215 32.6856 87.1906 32.6829C90.3768 32.669 93.5657 32.6745 96.7519 32.6745C97.6287 32.6745 98.5027 32.6745 99.4773 32.6745H99.4745ZM149.124 32.4714C149.124 32.0651 149.168 31.7089 149.115 31.3694C148.847 29.6553 148.523 27.9495 148.289 26.2298C148.205 25.612 147.998 25.3644 147.359 25.3755C144.136 25.4311 140.914 25.4534 137.692 25.5091C137.557 25.5091 137.34 25.7094 137.312 25.8458C136.918 27.8215 136.535 29.8 136.184 31.7841C136.055 32.4992 136.178 32.591 136.901 32.5855C140.727 32.5465 144.552 32.5103 148.378 32.4742C148.599 32.4742 148.822 32.4742 149.124 32.4742V32.4714ZM36.9773 32.8025C37.5973 32.7608 38.0971 32.7023 38.5969 32.6996C40.6801 32.6884 42.7632 32.7023 44.8464 32.6912C46.4045 32.6829 47.9599 32.6356 49.5181 32.6356C50.0459 32.6356 50.1883 32.3907 50.0989 31.9427C49.9453 31.1941 49.7666 30.4511 49.6019 29.7054C49.3533 28.5784 49.0741 27.4569 48.8842 26.3216C48.8116 25.8792 48.6776 25.7094 48.2364 25.6983C45.9689 25.6398 43.7015 25.5202 41.434 25.5146C40.5293 25.5146 39.6218 25.7428 38.717 25.8875C38.1362 25.9821 37.8681 26.3633 37.8067 26.9366C37.7285 27.6601 37.6168 28.3808 37.5135 29.1015C37.3404 30.3009 37.1644 31.4974 36.9745 32.7997L36.9773 32.8025ZM66.3564 32.6745C66.1497 31.0077 66.0073 29.5384 65.7644 28.0858C65.6555 27.4347 65.3986 26.7891 65.0886 26.1992C64.9462 25.9265 64.5273 25.6371 64.2258 25.6287C61.3021 25.5619 58.3756 25.548 55.4492 25.5397C55.2928 25.5397 55.0527 25.6955 54.994 25.8374C54.187 27.8215 53.7095 29.8918 53.4498 32.0122C53.394 32.463 53.6006 32.63 54.0669 32.63C57.2 32.63 60.3303 32.655 63.4634 32.6717C64.3961 32.6773 65.326 32.6717 66.3564 32.6717V32.6745ZM82.8344 32.6578C82.8344 32.3768 82.854 32.2627 82.8316 32.1569C82.3821 30.0783 81.9269 27.9996 81.4801 25.9181C81.3936 25.5202 81.0976 25.5035 80.7904 25.5063C77.7132 25.5313 74.6359 25.5647 71.5587 25.5842C71.204 25.5842 71.1286 25.7595 71.0895 26.06C71.003 26.7279 70.8885 27.3902 70.7684 28.0524C70.545 29.2852 70.2546 30.5068 70.0926 31.7479C69.9753 32.6356 70.0563 32.6578 70.9527 32.6578C74.2198 32.6578 77.487 32.6578 80.7541 32.6578C81.4271 32.6578 82.0973 32.6578 82.8344 32.6578ZM132.607 32.4213C132.333 30.2202 132.213 28.0636 131.347 26.0572C131.272 25.8792 130.959 25.7011 130.752 25.6955C128.072 25.6064 125.388 25.5397 122.707 25.484C122.146 25.4729 121.579 25.5146 121.024 25.5898C120.867 25.6092 120.616 25.8318 120.616 25.9599C120.624 27.3902 120.144 28.7147 119.784 30.0643C119.58 30.8296 119.359 31.606 119.558 32.4185H132.609L132.607 32.4213ZM16.8244 32.6856C16.8384 32.4658 16.858 32.4046 16.844 32.3573C16.1822 30.2397 15.5204 28.122 14.8558 26.0044C14.7497 25.6677 14.5151 25.5536 14.1633 25.5814C13.5294 25.6315 12.8899 25.6732 12.2533 25.6788C9.94672 25.6955 7.64018 25.7038 5.33644 25.7011C4.89244 25.7011 4.70815 25.8903 4.66347 26.3272C4.5406 27.5543 4.36189 28.7732 4.2474 30.0003C4.16083 30.9214 4.13849 31.8481 4.07706 32.9333C8.37738 32.8498 12.5884 32.7663 16.8244 32.6856ZM153.008 41.3816C153.162 38.5488 151.344 36.8458 149.369 36.2586C149.21 36.2113 149.032 36.1418 148.878 36.1668C147.747 36.3588 146.557 36.3644 145.602 37.1575C145.432 37.2994 145.189 37.3495 145.019 37.4914C144.751 37.714 144.452 37.9366 144.282 38.2288C143.687 39.2473 143.385 40.3548 143.368 41.5402C143.332 44.0252 144.519 45.8228 146.65 46.5602C148.657 47.2559 150.405 46.6493 151.701 45.1883C152.611 44.1615 153.156 42.7869 153.005 41.3844L153.008 41.3816ZM51.1405 42.3695C51.174 41.1256 50.8026 39.968 50.3446 38.841C50.2441 38.5933 49.9788 38.3596 49.7303 38.2288C48.806 37.7363 47.8678 37.2632 46.9128 36.8347C45.8293 36.3477 44.7235 36.5647 43.9053 37.2855C42.8275 38.2371 41.959 39.4198 41.4368 40.7889C40.6075 42.9677 41.529 45.0659 43.6596 46.0343C45.2066 46.7383 46.7843 46.7494 48.3788 46.3098C48.887 46.1706 49.4064 45.9369 49.8169 45.6141C50.8557 44.796 51.1684 43.6384 51.1433 42.3667L51.1405 42.3695ZM20.7897 36.6037C19.3376 36.7206 17.7348 37.2827 17.0534 38.2037C15.9532 39.6925 15.4897 41.4233 15.822 43.2349C16.1626 45.077 17.5421 46.0983 19.2176 46.7411C19.4158 46.8162 19.6671 46.8218 19.8794 46.7828C21.6079 46.4684 23.1604 45.7838 24.5427 44.6791C25.6262 43.8137 25.6234 42.6449 25.4977 41.4873C25.4139 40.7026 25.0733 39.9429 24.8387 39.1749C24.5595 38.2622 24.001 37.5693 23.099 37.2437C22.3506 36.9738 21.5604 36.8124 20.7897 36.6009V36.6037ZM79.2629 41.3677C79.2546 44.1587 80.8993 46.2485 83.4516 46.5602C85.3085 46.7856 87.8775 45.5056 88.7013 43.8276C89.0113 43.1987 89.2067 42.4307 89.1816 41.735C89.0978 39.2389 87.481 37.394 85.0349 36.7957C84.3563 36.6287 83.7224 36.6343 83.0634 36.9154C82.3234 37.2298 81.5611 37.4886 80.7904 37.7251C80.271 37.8837 79.9303 38.1759 79.8158 38.6991C79.6204 39.5868 79.4444 40.48 79.2601 41.3705L79.2629 41.3677ZM127.446 42.1914C127.432 40.5357 126.86 39.136 125.718 37.9422C123.903 36.0472 121.306 35.8134 119.488 37.4886C118.212 38.6629 117.793 40.1934 118.019 41.9242C118.276 43.8972 119.06 45.5083 120.929 46.4127C121.241 46.563 121.657 46.6298 121.995 46.5658C122.878 46.4044 123.746 46.1595 124.612 45.9285C126.586 45.4026 127.466 44.2367 127.446 42.1886V42.1914ZM94.2806 66.8155C93.9985 66.796 93.831 66.7654 93.6634 66.7738C91.2089 66.8656 88.7516 66.9185 86.2998 67.0659C83.513 67.2357 80.7318 67.5807 77.9337 67.2635C77.5456 67.219 77.2384 67.3943 77.1547 67.7616C76.9229 68.7606 76.7302 69.768 76.5403 70.7753C76.4789 71.1037 76.6129 71.2984 76.9899 71.3207C77.9812 71.3736 78.9725 71.5238 79.9638 71.5071C84.4261 71.4292 88.8884 71.3096 93.3507 71.201C94.1437 71.1816 94.1409 71.176 94.18 70.3829C94.208 69.8431 94.261 69.3005 94.275 68.7606C94.2917 68.1317 94.2778 67.5 94.2778 66.8183L94.2806 66.8155ZM85.6995 85.7462C87.3637 85.6127 89.0224 85.4735 90.6811 85.3511C91.1614 85.3149 91.3485 85.0533 91.4379 84.6109C91.7451 83.1082 91.3346 81.8171 90.2567 80.768C88.2825 78.8451 85.8391 78.4444 83.231 78.8257C82.773 78.8924 82.3178 79.3655 81.9744 79.7551C81.5834 80.1975 81.321 80.7541 81.0082 81.2633C80.3715 82.2957 80.07 83.4115 80.1621 84.6276C80.1844 84.9337 80.2794 85.0923 80.6145 85.1313C82.3039 85.3233 83.9905 85.5403 85.6967 85.749L85.6995 85.7462ZM89.93 87.708H81.8515C81.8962 89.2858 84.7724 96.365 85.9145 97.7063C87.2493 94.381 88.5757 91.0779 89.93 87.708ZM8.6287 35.7911C8.72923 35.9442 8.74598 36.0082 8.78508 36.0249C10.2651 36.7011 11.745 37.3856 13.239 38.0284C13.387 38.0924 13.6941 37.9617 13.8449 37.8281C14.5012 37.2548 15.1239 36.6399 15.7689 36.0555C15.9783 35.8663 16.2269 35.7188 16.4559 35.5546C16.4391 35.4934 16.4223 35.4322 16.4028 35.371C13.8366 35.5101 11.2731 35.6492 8.62591 35.7939L8.6287 35.7911ZM152.65 35.307C153.368 36.0583 153.96 36.7317 154.616 37.3328C154.781 37.483 155.186 37.5164 155.418 37.4329C156.806 36.9237 158.177 36.3672 159.548 35.819C159.794 35.7216 160.022 35.5824 160.394 35.3904C157.755 35.1344 155.292 34.9953 152.648 35.307H152.65ZM89.2402 75.5059C87.5397 75.6645 85.8642 75.3055 84.2027 75.5894C84.1999 75.6673 84.1971 75.7424 84.1916 75.8203C85.867 76.0123 87.5425 76.2043 89.2375 76.3991V75.5059H89.2402ZM127.198 35.0927C127.181 35.1595 127.161 35.2263 127.145 35.293C127.616 35.5852 128.083 35.8858 128.56 36.164C128.655 36.2197 128.82 36.2392 128.912 36.1946C129.353 35.972 129.781 35.7216 130.213 35.4823C130.205 35.4266 130.197 35.371 130.188 35.3153C129.189 35.2402 128.192 35.1678 127.192 35.0927H127.198ZM42.3053 35.4906H39.5743C39.5603 35.5491 39.5464 35.6075 39.5324 35.6687C39.982 35.9804 40.4343 36.292 40.8951 36.612C41.3531 36.2475 41.7747 35.9108 42.3025 35.4934L42.3053 35.4906Z" fill="white"/>
<path d="M117.832 0C119.128 0.155831 120.382 0.453581 121.473 1.20769C122.04 1.59727 122.571 2.03972 123.152 2.48495C123.766 1.86998 124.383 1.24665 125.006 0.631674C125.123 0.517583 125.26 0.392361 125.411 0.345055C125.69 0.256009 125.927 0.26714 125.925 0.67898C125.916 2.98028 125.922 5.27879 125.922 7.57452C125.397 7.87505 125.118 7.68026 124.9 7.19607C124.129 5.48193 123.051 3.98205 121.58 2.79662C119.982 1.51101 118.19 0.890465 116.123 1.45814C115.087 1.74197 114.517 2.45434 114.434 3.51734C114.372 4.32432 114.813 5.10626 115.774 5.45132C116.986 5.8882 118.251 6.17204 119.496 6.50874C120.527 6.78701 121.574 7.0152 122.599 7.31295C127.156 8.62916 127.952 12.2829 127.128 15.5887C126.391 18.5439 123.691 20.2024 120.541 19.8295C118.586 19.5986 116.975 18.7276 115.573 17.4197C115.14 17.0162 114.841 17.0441 114.47 17.4782C114.006 18.018 113.509 18.53 113.001 19.0281C112.825 19.2007 112.577 19.3398 112.339 19.3927C112.23 19.4177 111.946 19.1979 111.943 19.0866C111.921 16.5654 111.926 14.0415 111.926 11.5176C112.493 11.3228 112.822 11.462 113.079 11.9879C113.853 13.5712 114.682 15.124 116.051 16.3066C117.486 17.5449 119.05 18.5217 121.015 18.5523C121.694 18.5634 122.398 18.4465 123.054 18.2657C123.867 18.0403 124.322 17.4392 124.4 16.5821C124.478 15.7501 124.157 15.0572 123.428 14.7094C122.61 14.3198 121.728 14.0499 120.848 13.8078C118.971 13.293 117.053 12.9145 115.204 12.319C113.702 11.8348 112.451 10.9026 111.904 9.32484C110.963 6.61727 111.231 4.09057 113.177 1.86719C114.093 0.820898 115.271 0.258791 116.654 0.105743C116.894 0.0779157 117.134 0.0361751 117.374 0C117.525 0 117.676 0 117.824 0L117.832 0ZM113.596 9.58641C113.845 10.1652 114.177 10.3405 114.663 10.3377C117.536 10.3294 120.409 10.335 123.283 10.3294C123.411 10.3294 123.543 10.2932 123.671 10.2737C123.685 10.1958 123.696 10.1207 123.71 10.0428C123.247 9.90364 122.789 9.66155 122.32 9.64207C120.633 9.58085 118.941 9.59198 117.251 9.58363C116.059 9.57807 114.864 9.58363 113.596 9.58363V9.58641ZM125.536 11.9072C125.394 11.3256 125.09 11.192 124.637 11.1948C121.881 11.2115 119.125 11.2143 116.369 11.2226C116.215 11.2226 116.062 11.2449 115.905 11.256C115.894 11.3256 115.883 11.3952 115.875 11.462C116.492 11.6094 117.109 11.871 117.729 11.8849C120.108 11.935 122.49 11.9044 124.872 11.9044C125.073 11.9044 125.277 11.9044 125.534 11.9044L125.536 11.9072ZM112.912 8.01697C112.923 8.54847 113.127 8.69317 113.557 8.68204C114.716 8.65421 115.875 8.67369 117.031 8.6709C117.156 8.6709 117.285 8.63751 117.542 8.60412C115.975 7.81383 114.456 7.93905 112.912 8.01975V8.01697ZM122.272 12.9034C122.275 12.9646 122.28 13.0231 122.283 13.0843C123.23 13.6074 125.126 13.8022 126.131 13.485C126.103 12.9535 126.106 12.9396 125.612 12.9229C124.995 12.9034 124.378 12.909 123.76 12.9034C123.263 12.9034 122.769 12.9034 122.272 12.9034ZM113.976 7.05137C113.987 6.43639 113.691 6.25552 112.909 6.40578C112.772 6.43083 112.661 6.57831 112.535 6.67014C112.649 6.79814 112.75 7.0152 112.881 7.03468C113.239 7.08476 113.61 7.05137 113.976 7.05137ZM126.229 14.7094C126.181 14.6648 126.137 14.6203 126.089 14.5758C125.838 14.5869 125.584 14.5981 125.333 14.6092L125.271 14.8346C125.5 14.9515 125.721 15.0934 125.964 15.1602C126.008 15.1713 126.137 14.868 126.229 14.7122V14.7094Z" fill="white"/>
<path d="M56.9068 19.2619H46.9797V18.1154C47.4572 18.0681 47.9543 18.0152 48.4513 17.9707C49.0601 17.9178 49.4426 17.5978 49.4957 16.994C49.5878 15.9532 49.6884 14.9125 49.6967 13.869C49.7219 10.7663 49.7191 7.66079 49.6967 4.55529C49.6911 3.94588 49.5683 3.33369 49.4538 2.73262C49.3533 2.20669 48.9707 1.95903 48.4513 1.90338C48.1525 1.86998 47.8537 1.83381 47.5549 1.80876C46.9713 1.75589 46.7284 1.39414 46.9574 0.845949C47.0048 0.731858 47.2478 0.640029 47.4014 0.640029C49.3728 0.612202 51.3415 0.570461 53.3129 0.598288C55.4128 0.626115 57.5155 0.676204 59.6098 0.812556C60.3945 0.865428 61.1903 1.11865 61.9275 1.41084C62.7736 1.74754 63.2595 2.48218 63.5192 3.34203C63.9576 4.79182 63.9716 6.25274 63.5834 7.71366C63.2539 8.96031 62.3939 9.75617 61.2992 10.3517C61.0563 10.4852 60.8078 10.6077 60.5201 10.7579C61.1568 12.7364 61.6343 14.7428 62.7262 16.5181C63.1394 17.1915 63.7231 17.7286 64.4854 17.9317C65.0578 18.0848 65.1891 18.3742 65.1081 18.8807C65.0913 18.9892 65.0858 19.1005 65.0662 19.2841C64.7479 19.2841 64.4351 19.2841 64.1224 19.2841C62.4693 19.2841 60.8189 19.2674 59.1658 19.2953C58.7358 19.3036 58.5431 19.1561 58.3951 18.7638C57.4764 16.3345 56.5326 13.9135 55.5943 11.4898C55.5329 11.334 55.4938 11.1531 55.3877 11.0334C55.2872 10.9221 55.1056 10.808 54.9744 10.8219C54.885 10.8303 54.7482 11.0585 54.7482 11.1893C54.7538 13.0203 54.7482 14.8513 54.818 16.6795C54.8515 17.5116 55.2062 17.8037 56.0411 17.9651C56.0607 17.9679 56.0774 17.9679 56.097 17.9707C57.0715 18.1544 57.0799 18.1711 56.9012 19.2619H56.9068ZM54.7343 5.66837C54.7343 6.7898 54.7203 7.90845 54.7482 9.02988C54.751 9.18849 54.9353 9.4612 55.0638 9.4779C56.3762 9.65042 57.6356 9.26919 58.1047 7.80549C58.5319 6.46979 58.5292 5.11462 58.1215 3.7817C57.7277 2.48496 56.6889 1.82268 55.3402 1.90338C54.9241 1.92842 54.7035 2.04251 54.7203 2.53227C54.7594 3.57578 54.7315 4.62208 54.7315 5.66837H54.7343Z" fill="white"/>
<path d="M81.9493 10.7496C82.5803 12.461 83.1667 14.1974 83.8593 15.8892C84.2949 16.9495 85.1159 17.6841 86.244 18.0458C86.3836 18.0904 86.526 18.2991 86.5595 18.4521C86.6126 18.697 86.5735 18.9641 86.5735 19.3036H84.1581C83.0327 19.3036 81.9018 19.2647 80.7792 19.3203C80.2375 19.3481 80.0169 19.1339 79.8438 18.6803C79.1149 16.7574 78.3638 14.8402 77.6154 12.9229C77.3837 12.3302 77.1491 11.7375 76.8698 11.167C76.7889 11 76.5571 10.9054 76.3923 10.7774C76.3086 10.9555 76.1522 11.1336 76.1522 11.3117C76.141 12.8644 76.1522 14.4172 76.1689 15.9672C76.1689 16.2287 76.1969 16.4903 76.236 16.7491C76.3393 17.4336 76.6548 17.7731 77.3362 17.9262C77.6657 17.9985 78.0008 18.0431 78.3777 18.1071V19.2702H68.5149V18.1043C68.9729 18.0681 69.4169 18.0236 69.8637 18.0013C70.4501 17.9707 70.8326 17.6618 70.9527 17.1164C71.0756 16.5543 71.1621 15.9727 71.1621 15.3995C71.1621 12.3329 71.123 9.26641 71.1035 6.19987C71.0979 5.4708 71.1119 4.74451 71.1035 4.01545C71.0728 2.18721 70.8326 1.91729 68.998 1.81155C68.5345 1.78372 68.4339 1.59728 68.4312 1.19657C68.4312 0.784727 68.6127 0.620548 69.0092 0.626113C73.0805 0.676202 77.1547 0.662288 81.2232 0.790293C83.7224 0.868208 85.074 2.23173 85.3002 4.71669C85.3756 5.55985 85.2974 6.4364 85.1522 7.27399C84.8925 8.79057 83.957 9.8146 82.5468 10.4212C82.41 10.4797 82.2704 10.5353 82.1336 10.5993C82.1 10.6132 82.0749 10.6466 81.9548 10.7468L81.9493 10.7496ZM76.1969 5.69342C76.1969 6.77589 76.2164 7.86114 76.1857 8.94361C76.1745 9.3638 76.3393 9.49737 76.7218 9.53077C78.1208 9.65599 79.1875 8.98536 79.6064 7.64687C80.0085 6.36127 79.9527 5.05061 79.5897 3.77892C79.2155 2.4627 78.0734 1.7865 76.6939 1.89503C76.3086 1.92564 76.1801 2.06477 76.1857 2.446C76.2052 3.52847 76.1913 4.61094 76.1913 5.6962L76.1969 5.69342ZM72.0836 14.6398C71.9636 15.1323 72.1618 15.3327 72.6142 15.3299C73.0051 15.3299 73.3989 15.3355 73.7898 15.3327C74.4013 15.3271 74.4293 15.2854 74.298 14.637H72.0836V14.6398ZM72.1479 11.9016H74.3232C74.4293 11.4286 74.2869 11.2393 73.8457 11.2644C73.4352 11.2894 73.0191 11.2894 72.6086 11.2644C72.1451 11.2366 71.9831 11.4035 72.1479 11.9016ZM74.3232 7.75818H72.0613C72.0864 7.99193 72.106 8.18394 72.1311 8.40934C72.7231 8.40934 73.2648 8.38429 73.801 8.41768C74.3036 8.44829 74.4321 8.23124 74.3232 7.75818ZM72.1199 13.5629H74.4656C74.3287 13.3152 74.2422 12.9952 74.1333 12.9897C73.4575 12.9424 72.779 12.9674 72.0641 12.9674C72.0892 13.2262 72.1032 13.3848 72.1199 13.5657V13.5629ZM72.0864 4.9727H74.2897V4.40503H72.0864V4.9727ZM74.312 6.13587C73.7088 6.10247 73.0973 6.0496 72.4857 6.05517C72.3545 6.05517 72.2261 6.27778 72.0976 6.40022C72.2288 6.51431 72.3517 6.71467 72.4941 6.7258C72.9577 6.76754 73.4296 6.7258 73.8987 6.74806C74.326 6.77032 74.4181 6.57553 74.3148 6.13865L74.312 6.13587ZM74.1835 16.8326C74.3204 16.3818 74.2561 16.1258 73.7228 16.1731C73.3346 16.2065 72.9409 16.2009 72.55 16.2009C72.1032 16.2009 72.0027 16.4152 72.1451 16.8354H74.1835V16.8326ZM74.2785 3.3949L74.4293 3.21124C74.298 3.07489 74.1724 2.83001 74.0327 2.82167C73.3654 2.77993 72.6952 2.80219 72.025 2.80219C71.9887 2.85784 71.9524 2.91628 71.9161 2.97193C72.0725 3.11107 72.2177 3.36151 72.3824 3.37264C73.0107 3.41995 73.6446 3.39212 74.2785 3.39212V3.3949ZM74.3287 9.34433H71.9189C72.106 9.59199 72.2065 9.85634 72.3266 9.86191C72.9912 9.90365 73.6586 9.88139 74.3315 9.88139V9.34433H74.3287ZM74.326 18.2128C74.3287 18.121 74.3315 18.0319 74.3343 17.9401C73.5413 17.7091 72.7175 17.7314 71.8965 17.7592C71.8407 17.7592 71.7262 17.9596 71.7513 18.0069C71.7988 18.0987 71.9273 18.1989 72.025 18.2017C72.4913 18.2212 72.9577 18.2128 73.424 18.2128C73.7256 18.2128 74.0244 18.2128 74.326 18.2128ZM71.6927 1.50823C72.2903 1.99799 74.0914 1.96459 74.3567 1.50823H71.6927Z" fill="white"/>
<path d="M13.4484 1.87552V0.692871H22.9733C22.9928 0.776352 23.0208 0.84592 23.0236 0.915487C23.0654 1.82821 23.0654 1.83656 22.1551 2.00631C20.5132 2.3124 19.1393 3.11661 17.9609 4.26586C17.0338 5.16746 16.1291 6.09132 15.2355 7.02631C15.1126 7.15431 14.9981 7.45484 15.0652 7.58006C16.4586 10.2459 17.7208 12.9841 19.5945 15.38C20.7812 16.8966 22.2696 17.8566 24.2271 18.1488V19.2452H13.0546V18.1265C13.3032 18.1098 13.5405 18.0987 13.7779 18.0736C14.3866 18.0096 14.5625 17.7564 14.3838 17.1693C13.9063 15.6137 13.0742 14.2391 12.1694 12.9062C11.812 12.3802 11.4378 11.8682 11.0553 11.3256C10.4102 11.7764 9.97459 12.2467 10.0584 13.1176C10.1477 14.0248 10.0667 14.9487 10.0584 15.8642C10.036 17.6312 10.695 18.1961 12.0577 18.0903C12.1275 18.0848 12.2001 18.1154 12.3007 18.1321V19.3231C11.1949 19.3231 10.1086 19.3231 9.02516 19.3231C7.07326 19.3203 5.11857 19.3119 3.16667 19.3064C2.10555 19.3036 2.06925 19.2591 2.31219 18.0792C2.66124 18.0792 3.02984 18.0931 3.39844 18.0792C4.33669 18.0375 4.80023 17.6646 4.88959 16.7352C5.00129 15.5636 5.06551 14.3866 5.07668 13.2095C5.09064 11.32 5.04876 9.43334 5.02083 7.54389C4.99849 6.08019 4.98453 4.61648 4.90914 3.15835C4.86725 2.35693 4.52099 2.07587 3.73353 2.00352C3.28674 1.96178 2.83995 1.92283 2.35687 1.8783V0.71235H12.7475V1.87552C12.2867 1.92004 11.826 1.99518 11.3624 2.00631C10.7397 2.02022 10.3823 2.31519 10.2427 2.90234C10.1812 3.15556 10.0891 3.41157 10.0863 3.66758C10.0751 5.87427 10.0779 8.08095 10.0779 10.2988C10.1477 10.3043 10.2203 10.3322 10.2482 10.3099C12.2532 8.71819 14.1856 7.05135 15.3249 4.6944C15.5343 4.26308 15.6153 3.72602 15.6013 3.24461C15.579 2.50719 15.121 2.10927 14.3866 2.01187C14.0906 1.97291 13.7946 1.92839 13.4484 1.8783V1.87552ZM5.6966 6.7536H7.9445V6.07184C7.31062 6.07184 6.69629 6.07184 6.08195 6.07184C5.59328 6.07184 5.50672 6.31393 5.6966 6.7536ZM5.42853 13.0342C5.6212 13.3069 5.73011 13.613 5.85856 13.6213C6.55666 13.6686 7.26035 13.6436 8.00872 13.6436C7.99755 13.3931 7.98918 13.2206 7.9808 13.0314H5.42573L5.42853 13.0342ZM5.63237 8.42601C6.3612 8.42601 7.01741 8.4427 7.67084 8.41209C7.79091 8.40653 7.95287 8.22287 7.99476 8.0893C8.0171 8.01138 7.84118 7.78042 7.74903 7.77485C7.04255 7.74703 6.33606 7.76094 5.5849 7.76094C5.60445 8.00303 5.61562 8.18113 5.63517 8.42601H5.63237ZM5.60724 15.2631H7.9417V14.6704H5.56815C5.58211 14.9014 5.59328 15.0628 5.60724 15.2631ZM7.95008 4.39665H5.61841V5.00328H7.95008V4.39665ZM7.93891 11.8933C8.06457 11.5037 7.98918 11.2699 7.53122 11.2727C7.04534 11.2727 6.55946 11.2783 6.07358 11.2727C5.64354 11.2671 5.50392 11.4592 5.64634 11.896H7.93891V11.8933ZM5.71335 16.9383C6.36957 16.9383 6.99787 16.9522 7.62616 16.9244C7.7211 16.9188 7.88027 16.724 7.88027 16.6155C7.88027 16.507 7.7211 16.3122 7.62616 16.3066C6.99787 16.2788 6.36678 16.2927 5.71335 16.2927V16.9411V16.9383ZM5.7329 3.43662C6.31372 3.43662 6.85545 3.41714 7.39439 3.44218C7.84397 3.46444 8.02827 3.30305 7.92216 2.8272H5.7329V3.43383V3.43662ZM7.92774 9.44447H5.63237C5.60445 9.96484 5.60445 9.97041 6.02052 9.97875C6.52595 9.9871 7.03138 9.96206 7.53401 9.9871C7.93053 10.0066 8.03944 9.8424 7.92774 9.44447ZM5.3643 18.2072H8.06457C8.08691 18.1543 8.10646 18.1015 8.1288 18.0458C7.98359 17.9679 7.84397 17.8343 7.69318 17.8204C6.31931 17.7035 5.56815 17.826 5.3643 18.2044V18.2072ZM8.19582 1.57221H5.64913C6.50361 2.00631 7.80208 2.02579 8.19582 1.57221Z" fill="white"/>
<path d="M130.47 0.581543H146.661V7.67744C146.094 7.96406 145.876 7.59952 145.633 7.17933C144.829 5.79076 143.916 4.48568 142.796 3.31416C141.498 1.9562 139.942 1.64454 138.147 1.9562V8.81278C138.775 8.96305 139.292 8.70704 139.772 8.38424C140.593 7.83605 141.135 7.04576 141.537 6.17199C141.724 5.76572 141.956 5.65998 142.358 5.75459C142.799 5.85755 142.617 6.2026 142.617 6.44192C142.631 8.50112 142.626 10.5575 142.626 12.6167V13.2206C142.045 13.382 141.699 13.2679 141.473 12.7058C141.054 11.6623 140.333 10.8581 139.283 10.4045C138.957 10.2626 138.582 10.2292 138.141 10.1234V17.9206C140.099 18.2489 141.729 17.5783 143.031 16.2148C143.941 15.2603 144.673 14.1361 145.471 13.0787C145.65 12.8421 145.79 12.5722 145.929 12.3079C146.102 11.9851 146.393 11.8849 146.683 12.0324C146.84 12.1131 146.988 12.383 146.988 12.5694C147.004 14.6258 146.988 16.685 146.988 18.7415C146.988 19.1644 146.759 19.2869 146.379 19.2841C145.552 19.2757 144.726 19.2841 143.899 19.2841C139.655 19.2841 135.41 19.2841 131.163 19.2841C130.94 19.2841 130.713 19.2841 130.434 19.2841V18.0875C130.92 18.0291 131.403 17.9679 131.886 17.9178C132.492 17.8538 132.855 17.531 132.925 16.9271C132.995 16.3344 133.076 15.7389 133.079 15.1434C133.092 11.551 133.087 7.95849 133.084 4.36602C133.084 2.1009 132.788 1.81428 130.468 1.84489V0.581543H130.47Z" fill="white"/>
<path d="M107.578 0.601106C107.578 0.868245 107.626 1.11869 107.564 1.33852C107.511 1.53331 107.377 1.80045 107.215 1.8561C106 2.29021 105.42 3.19737 105.174 4.39393C104.802 6.18877 104.886 8.00031 104.95 9.81464C105.017 11.7264 104.942 13.6214 104.395 15.483C103.604 18.1655 101.94 19.5458 99.145 19.7739C97.9386 19.8713 96.7407 19.9159 95.5874 19.4734C93.9343 18.8417 92.9933 17.5672 92.4599 15.9422C91.907 14.2586 91.9238 12.5111 91.907 10.7747C91.8847 8.6626 91.9573 6.55053 91.9433 4.43845C91.9405 3.84852 91.7925 3.2558 91.6752 2.67144C91.5943 2.26238 91.3122 2.0342 90.8822 1.99524C90.603 1.9702 90.3237 1.92289 90.0445 1.89785C89.0839 1.81158 88.9526 1.60566 89.2514 0.615019H99.7509C99.723 1.03521 99.6979 1.41644 99.6699 1.81436C99.0975 1.8728 98.5614 1.92289 98.0252 1.98689C97.584 2.03976 97.2796 2.29577 97.2154 2.72709C97.087 3.58973 96.9194 4.46072 96.9138 5.32892C96.8971 8.49007 96.9222 11.6512 96.9725 14.8096C96.9808 15.3773 97.1037 15.97 97.2992 16.507C97.9303 18.2518 99.441 18.8529 101.147 18.0932C102.097 17.6702 102.669 16.9022 103.06 15.9811C103.699 14.4645 103.783 12.8533 103.819 11.2449C103.861 9.41393 103.859 7.58013 103.814 5.74911C103.797 5.08682 103.66 4.41063 103.465 3.77339C103.147 2.73266 102.443 2.05089 101.323 1.85889C101.234 1.84497 101.15 1.79767 101.075 1.76984C100.932 0.589975 100.932 0.573279 102.069 0.562148C103.778 0.548234 105.487 0.559365 107.193 0.562148C107.302 0.562148 107.408 0.581627 107.575 0.59554L107.578 0.601106Z" fill="white"/>
<path d="M33.4365 18.1322V19.2814H26.0896C25.9081 18.3019 25.9025 18.288 26.7375 17.8817C27.564 17.481 28.1979 16.8883 28.5526 16.0451C29.999 12.6224 31.4343 9.19412 32.8613 5.76304C33.5566 4.09064 34.2128 2.40154 34.9221 0.734698C35.0282 0.487037 35.3353 0.158678 35.5364 0.167026C35.7514 0.175374 36.0446 0.503733 36.1451 0.754177C38.125 5.69626 40.0992 10.6439 42.0343 15.6027C42.5817 17.0052 43.4026 17.993 45.0278 18.0988V19.2647H34.5926V18.1656C35.0114 18.0793 35.4359 18.0097 35.8491 17.904C36.5584 17.7203 36.7846 17.3447 36.5752 16.6629C36.3741 16.0034 36.1563 15.3439 35.9022 14.7039C35.8408 14.5508 35.5978 14.3783 35.4331 14.3755C34.062 14.3505 32.6909 14.3672 31.3226 14.356C30.8703 14.3532 30.6915 14.5286 30.6943 14.9933C30.7139 16.9579 31.4343 17.8205 33.4393 18.1266L33.4365 18.1322ZM33.2606 8.17008C33.1963 8.16173 33.1293 8.1506 33.0651 8.14225C32.434 9.77848 31.8001 11.4119 31.1495 13.0983H35.1873C34.5311 11.4175 33.8972 9.79518 33.2606 8.17008Z" fill="white"/>
<path d="M160.115 17.9151C162.083 18.2741 163.628 17.545 165.001 16.2789C166.174 15.1964 167.02 13.8774 167.808 12.5139C167.883 12.3859 167.947 12.2078 168.062 12.1577C168.252 12.0742 168.486 12.0352 168.69 12.0658C168.766 12.077 168.852 12.3358 168.852 12.4805C168.863 14.7038 168.861 16.9244 168.861 19.1951H152.452V18.0848C152.913 18.018 153.388 17.929 153.865 17.8845C154.48 17.826 154.82 17.4977 154.926 16.9105C154.979 16.6183 155.038 16.3206 155.035 16.0228C155.03 12.0018 155.018 7.98083 155.005 3.96261C155.005 3.75669 154.979 3.55355 154.965 3.34763C154.89 2.19003 154.58 1.88393 153.416 1.80879C152.706 1.76242 152.382 1.36542 152.444 0.617798H162.79C162.809 0.826501 162.818 0.973984 162.84 1.1159C162.918 1.61401 162.734 1.83662 162.206 1.79766C161.93 1.77819 161.648 1.85054 161.368 1.88671C160.796 1.96184 160.444 2.3069 160.324 2.84118C160.207 3.36711 160.101 3.90974 160.098 4.4468C160.081 8.82399 160.087 13.1984 160.09 17.5756C160.09 17.6674 160.103 17.7593 160.115 17.9123V17.9151ZM158.02 14.5758H156.054C156.024 14.6259 155.993 14.676 155.962 14.7261C156.082 14.8903 156.191 15.1825 156.328 15.1964C156.873 15.252 157.426 15.2186 157.99 15.2186C158.001 14.971 158.009 14.8096 158.023 14.5758H158.02ZM156.163 7.02636C156.708 7.02636 157.191 7.04863 157.674 7.00967C157.794 7.00132 157.992 6.7954 157.987 6.68966C157.981 6.56444 157.797 6.35852 157.68 6.35017C157.185 6.31121 156.686 6.33347 156.166 6.33347V7.02358L156.163 7.02636ZM158.099 3.06101H155.979C156.013 3.29476 156.041 3.48955 156.066 3.67599C157.828 3.7539 158.177 3.79565 158.099 3.06101ZM155.901 4.61654C156.091 4.90873 156.189 5.22596 156.32 5.23709C156.889 5.29274 157.467 5.26213 158.04 5.26213C158.079 5.20369 158.121 5.14247 158.16 5.08404C158.023 4.92821 157.895 4.65272 157.744 4.6388C157.191 4.58593 156.63 4.61654 155.901 4.61654ZM156.127 11.2199C156.08 11.2644 156.032 11.3089 155.985 11.3535C156.105 11.5204 156.214 11.8154 156.35 11.8293C156.901 11.885 157.456 11.8516 158.004 11.8516C158.026 11.2338 158.026 11.2282 157.585 11.2227C157.099 11.2143 156.613 11.2227 156.127 11.2227V11.2199ZM157.951 16.2204H156.041V16.8465C156.552 16.8465 157.032 16.827 157.509 16.8521C157.99 16.8744 158.104 16.6684 157.951 16.2204ZM157.981 9.58645C157.47 9.58645 157.007 9.60036 156.546 9.58367C156.018 9.56419 155.99 9.80907 156.169 10.1931H157.981V9.58645ZM157.998 8.63198C158.087 8.18119 157.981 7.98361 157.56 8.00866C157.188 8.03092 156.811 7.98918 156.443 8.02814C156.311 8.04205 156.2 8.2118 156.077 8.30919C156.189 8.41772 156.292 8.60972 156.409 8.61529C156.926 8.64868 157.448 8.6292 157.995 8.6292L157.998 8.63198ZM156.175 12.9229L156.001 13.0843C156.127 13.2485 156.242 13.5351 156.384 13.5518C156.917 13.6075 157.456 13.5741 157.99 13.5741C158.112 13.126 158.045 12.8979 157.574 12.9201C157.107 12.9424 156.641 12.9257 156.175 12.9257V12.9229ZM155.719 1.80879C155.689 1.85054 155.661 1.89228 155.63 1.93402C155.753 2.03976 155.859 2.2095 155.999 2.23733C156.725 2.38481 158.04 2.13437 158.213 1.80879H155.719ZM155.7 17.8622C155.708 17.9401 155.719 18.0208 155.728 18.0987C156.359 18.0987 156.99 18.0876 157.621 18.1015C158.048 18.1099 158.085 17.9234 157.928 17.5728C157.171 17.6674 156.404 17.5728 155.7 17.8594V17.8622Z" fill="white"/>
<path d="M169.008 34.9113C166.942 35.3649 165.018 36.1941 163.13 37.1152C160.907 38.2005 158.704 39.3302 156.272 39.9007C155.953 39.9758 155.797 40.1456 155.808 40.4934C155.833 41.2976 155.808 42.1018 155.844 42.906C155.909 44.2528 155.526 45.4244 154.524 46.3482C152.94 47.8091 151.05 48.7024 148.939 49.0558C147.032 49.3758 145.373 48.605 143.818 47.6004C143.362 47.3082 142.985 46.8992 142.533 46.5987C142.352 46.4762 142.067 46.4706 141.829 46.4762C141.673 46.479 141.505 46.5792 141.369 46.671C139.796 47.7312 137.998 48.2766 136.272 49.0029C133.84 50.0269 131.495 51.2569 129.076 52.3199C124.276 54.432 119.44 56.4689 114.64 58.581C111.364 60.0224 108.142 61.5835 104.86 63.011C102.596 63.9961 100.275 64.8615 97.966 65.7409C97.5695 65.8939 97.4438 66.0887 97.4634 66.4672C97.6002 68.9104 97.0585 71.3007 96.9133 73.7217C96.8853 74.1697 96.7122 74.3088 96.2542 74.2977C94.8664 74.2671 93.4758 74.2838 92.0852 74.2866C91.3396 74.2866 91.1497 74.4841 91.2056 75.2327C91.3145 76.6546 91.7082 78.0154 92.4147 79.237C94.4364 82.7265 94.0873 86.1993 92.4426 89.661C91.6719 91.2833 90.7588 92.8361 89.935 94.4305C88.7761 96.6762 87.6424 98.9357 86.4947 101.187C86.3691 101.432 86.2378 101.674 86.0703 101.991C85.8916 101.805 85.7408 101.691 85.6514 101.543C83.747 98.4293 81.7756 95.3544 79.9716 92.1849C78.8407 90.1953 78.0896 88.0136 77.8187 85.7235C77.7042 84.7467 77.7293 83.745 77.7852 82.7599C77.8438 81.7526 78.2236 80.8315 78.824 80.0106C79.3769 79.2537 79.8851 78.4578 80.4994 77.7566C81.2813 76.8633 81.0914 75.8504 81.0663 74.7847C79.7455 74.7374 78.4582 74.7123 77.1709 74.6372C76.1795 74.5787 75.1938 74.434 74.1997 74.37C73.7083 74.3394 73.5966 74.1057 73.577 73.666C73.4821 71.5929 73.348 69.5226 73.2559 67.4494C73.2391 67.0877 73.0967 66.9347 72.784 66.7983C63.6695 62.8162 54.4852 58.9872 45.4992 54.7186C44.8933 54.432 44.2231 54.2845 43.6032 54.0201C41.9166 53.3022 40.202 52.6343 38.574 51.8023C36.4797 50.731 34.3268 49.8544 32.0845 49.142C30.9368 48.7775 29.8729 48.1514 28.7754 47.6338C28.5213 47.5142 28.2896 47.35 28.041 47.2192C27.0581 46.7072 26.7872 46.7294 26.0249 47.5364C25.0978 48.5187 23.9473 48.9473 22.6349 49.1031C20.1329 49.3953 17.7621 49.0113 15.598 47.7173C13.5595 46.4957 12.6548 44.3753 13.0681 42.0406C13.2356 41.0917 13.2552 41.0499 12.4202 40.6604C9.31228 39.2134 6.19315 37.7942 3.07681 36.3694C2.20837 35.9715 1.33992 35.5708 0.463104 35.1924C0.0777498 35.0282 -0.0730408 34.8362 0.0330711 34.3826C0.870797 30.8569 1.68898 27.3256 2.48481 23.7888C2.59372 23.3019 2.83945 23.1377 3.28065 23.1349C4.35015 23.1293 5.41965 23.1265 6.49194 23.1238C8.51644 23.1238 10.5437 23.1238 12.5682 23.1238C13.8053 23.1238 15.0423 23.0792 16.2738 23.1377C16.5782 23.1516 17.0361 23.4299 17.1366 23.6914C17.5164 24.696 17.7901 25.7451 18.0777 26.783C18.195 27.2088 18.248 27.654 18.3318 28.0909C18.3848 28.0909 18.4351 28.0909 18.4882 28.0881C18.4882 27.6234 18.4742 27.1587 18.4882 26.6968C18.5273 25.5809 18.5719 24.4678 18.6334 23.3547C18.6585 22.9151 18.9322 22.7759 19.365 22.7843C23.4922 22.8678 27.6222 22.9373 31.7494 23.0152C32.1989 23.0236 32.6485 23.1071 33.0981 23.0959C33.4807 23.0848 33.6706 23.2657 33.8381 23.569C34.472 24.7266 34.6423 26.0094 34.8769 27.2756C34.916 27.487 34.9606 27.6957 35.0025 27.9072L35.1812 27.9128C35.2622 27.2199 35.36 26.5298 35.4214 25.8341C35.4884 25.0911 35.5024 24.3426 35.5806 23.5996C35.6615 22.8288 35.8403 22.7314 36.5942 22.8149C37.4319 22.9067 38.2752 22.9958 39.1186 23.0041C41.9529 23.0264 44.79 22.993 47.6243 23.0236C48.5597 23.0347 49.4924 23.1739 50.4251 23.2573C50.8076 23.2907 50.9612 23.5217 51.0143 23.8862C51.1455 24.7544 51.3019 25.6199 51.461 26.4825C51.5113 26.7496 51.6035 27.0084 51.6761 27.27C51.7291 27.2756 51.7794 27.2811 51.8324 27.2867C52.0447 26.5994 52.2709 25.9148 52.4663 25.2219C52.6143 24.7016 52.7344 24.1728 52.8489 23.6413C52.9131 23.3408 53.0555 23.2546 53.3766 23.2156C57.0291 22.7815 60.6928 23.082 64.3509 23.0125C64.6887 23.0069 65.0266 23.018 65.3645 23.0069C66.6099 22.9735 67.4812 23.6302 67.6962 24.863C67.8861 25.9482 67.9978 27.0446 68.2658 28.1688C68.3328 27.9629 68.4138 27.757 68.4669 27.5455C68.7405 26.4574 69.0058 25.3666 69.2767 24.2814C69.4889 23.4382 69.9804 23.0514 70.9019 22.9596C74.4985 22.6062 78.0979 22.6229 81.7029 22.7509C82.2475 22.7704 82.792 22.7982 83.3365 22.7787C83.6995 22.7648 83.8671 22.8733 83.9564 23.2379C84.1435 24.0198 84.3781 24.7906 84.5987 25.5642C84.6406 25.7172 84.6992 25.8619 84.7523 26.0122C84.7997 26.0122 84.8472 26.0122 84.8947 26.0094C85.0036 25.1913 85.1125 24.3732 85.2214 23.5551C85.3275 22.7537 85.4224 22.6424 86.2378 22.6312C88.9576 22.5951 91.6831 22.481 94.4001 22.5784C96.3241 22.6479 98.2341 23.018 100.152 23.2406C100.543 23.2852 100.627 23.5161 100.65 23.8501C100.719 24.8574 100.795 25.8619 100.892 26.8665C100.92 27.1503 101.029 27.423 101.102 27.7013C101.177 27.7013 101.25 27.6985 101.325 27.6957C101.403 26.911 101.557 26.1263 101.537 25.3444C101.515 24.3871 101.979 23.6664 102.476 22.9373C102.543 22.8399 102.733 22.7815 102.867 22.7759C106.036 22.7008 109.203 22.5978 112.372 22.5811C113.724 22.5728 115.056 22.8288 116.335 23.3269C116.745 23.4855 116.974 23.7165 117.075 24.1478C117.264 24.9659 117.499 25.7757 117.72 26.5854C117.767 26.758 117.826 26.9249 117.876 27.0947L118.035 27.0836C118.152 26.1959 118.292 25.3082 118.381 24.4177C118.457 23.6803 118.627 23.4354 119.342 23.2323C121.609 22.5895 123.927 22.5144 126.264 22.5839C128.233 22.6424 130.202 22.6479 132.17 22.7008C132.377 22.7064 132.634 22.8344 132.773 22.9902C133.413 23.697 133.656 24.5819 133.818 25.4918C133.974 26.3517 134.111 27.2116 134.36 28.0909C134.413 27.8989 134.482 27.7097 134.519 27.5149C134.709 26.4491 134.868 25.375 135.083 24.3148C135.303 23.21 135.921 22.737 137.035 22.737C140.698 22.737 144.359 22.737 148.023 22.737C148.548 22.737 149.073 22.7203 149.598 22.6952C150.025 22.6758 150.251 22.8566 150.343 23.2796C150.522 24.1005 150.737 24.913 150.938 25.7284C150.983 25.9037 151.042 26.079 151.217 26.2682C151.282 26.0901 151.351 25.912 151.407 25.7312C151.67 24.8546 151.941 23.9808 152.184 23.0987C152.267 22.7954 152.401 22.673 152.725 22.673C156.855 22.6507 160.985 22.6173 165.115 22.5867C165.152 22.5867 165.191 22.5867 165.227 22.5895C166.31 22.6563 166.389 22.6396 166.648 23.6998C167.246 26.1486 167.757 28.6168 168.31 31.0739C168.53 32.0535 168.768 33.0302 168.997 34.0097V34.9085L169.008 34.9113ZM89.3039 64.0128C89.921 64.0128 90.4432 63.985 90.9598 64.0184C91.7026 64.0685 92.2723 63.7846 92.8391 63.3144C94.7128 61.7588 96.5893 60.2033 98.5329 58.7368C103.947 54.649 109.384 50.5918 114.841 46.5597C115.536 46.0449 115.74 45.6052 115.544 44.7203C114.785 41.2893 115.505 38.2311 118.144 35.7517C118.245 35.6571 118.326 35.5458 118.46 35.3899C117.745 35.3371 117.111 35.2452 116.48 35.248C111.903 35.2786 107.323 35.3204 102.747 35.3871C102.512 35.3899 102.188 35.607 102.068 35.8157C101.529 36.7562 101.04 37.7274 100.546 38.693C96.7541 46.1367 93.4898 53.8142 90.3176 61.5334C89.9936 62.3237 89.6725 63.1168 89.3067 64.0128H89.3039ZM79.6924 64.2215C79.5919 63.9182 79.5556 63.793 79.5081 63.6733C75.6937 54.2733 71.586 45.0042 67.2047 35.8519C67.0204 35.4678 66.7998 35.3621 66.3893 35.3621C61.2429 35.376 56.0993 35.3704 50.9528 35.3732C50.7741 35.3732 50.5982 35.3927 50.3971 35.4066C50.4279 35.5124 50.4251 35.5791 50.4586 35.6125C50.6792 35.8407 50.9026 36.0689 51.1343 36.286C52.645 37.7079 53.7452 39.3636 54.1138 41.4423C54.3372 42.7084 54.3652 43.9384 53.4716 45.0069C53.3571 45.1433 53.2845 45.3186 53.184 45.4939C53.4381 45.6998 53.6503 45.8807 53.8709 46.0532C58.2327 49.4704 62.9016 52.4924 67.0316 56.2157C69.232 58.1997 71.9462 59.4325 74.4762 60.9324C74.8894 61.1772 75.2357 61.5306 75.6239 61.8173C76.4923 62.4628 77.3468 63.1307 78.2543 63.7206C78.6257 63.9627 79.1144 64.0295 79.6924 64.2243V64.2215ZM89.4407 35.4038C90.0411 36.183 90.6862 36.8008 91.0659 37.5493C92.4957 40.371 92.2499 43.1398 90.6052 45.8195C87.6703 50.6057 80.0247 50.5445 77.3216 45.5301C76.7017 44.3808 76.0734 43.1871 76.2745 41.8124C76.4141 40.8524 76.6291 39.8979 76.8916 38.9629C77.2993 37.5131 78.2013 36.4613 79.6366 35.9019C79.8823 35.8045 80.1169 35.6793 80.357 35.5652C80.343 35.5318 80.3291 35.4984 80.3151 35.4651H70.5416C70.6506 35.7823 70.7148 35.9938 70.793 36.1997C72.9403 41.8903 75.272 47.5058 77.8662 53.01C79.5584 56.5969 81.3288 60.1504 83.0489 63.7234C83.2388 64.1186 83.4622 64.2744 83.9201 64.2132C84.5484 64.1269 85.1935 64.0879 85.8273 64.1102C86.3049 64.1269 86.5171 63.9544 86.6735 63.5175C88.2819 58.9789 90.3259 54.624 92.3616 50.2663C94.5229 45.6358 96.62 40.9804 98.3011 36.1496C98.3709 35.9492 98.4156 35.7378 98.491 35.4511C95.4277 35.2285 92.451 35.0254 89.4352 35.4066L89.4407 35.4038ZM28.1527 44.2501C29.9734 45.416 72.6611 63.9154 73.5575 63.8709C73.0241 63.4702 72.4768 63.0834 71.8988 62.7522C71.2649 62.3905 70.5668 62.1317 69.9636 61.7282C68.7517 60.9184 67.5789 60.053 66.4005 59.1932C64.0241 57.4568 61.6701 55.6897 59.2826 53.9673C57.7272 52.8458 56.2417 51.6632 54.9125 50.2746C54.2954 49.629 53.5414 49.117 52.8489 48.541C51.933 47.7785 50.9975 47.6366 49.9866 48.3935C48.61 49.4259 47.0881 49.5984 45.4015 49.2951C42.3103 48.7413 40.0903 47.2108 39.1241 44.1499C38.6048 42.5053 38.6662 40.8273 39.0906 39.1688C39.2023 38.7375 39.0906 38.462 38.7751 38.1921C37.5827 37.1709 36.2005 36.5253 34.6926 36.1385C31.5483 35.3287 28.337 35.3482 25.1257 35.4233C24.9917 35.4261 24.8577 35.4651 24.6119 35.5068C27.8176 37.6912 29.0016 40.5852 28.1499 44.2445L28.1527 44.2501ZM143.971 35.273C141.103 35.0894 138.314 35.0755 135.558 35.6598C133.997 35.991 132.547 36.5336 131.296 37.5743C130.4 38.3173 129.95 39.102 130.101 40.357C130.358 42.4997 129.906 44.5534 128.479 46.2536C126.781 48.2794 124.678 49.4537 121.9 49.206C120.763 49.1059 119.836 48.5632 118.845 48.1403C118.437 47.965 118.138 47.9733 117.775 48.2265C114.938 50.1883 112.048 52.0806 109.256 54.098C105.609 56.7333 102.032 59.4631 98.4323 62.1623C98.1503 62.3738 97.9157 62.6409 97.6588 62.883C98.047 62.8524 98.3569 62.7356 98.6641 62.6048C101.836 61.2579 105 59.8861 108.183 58.5643C110.119 57.7601 112.121 57.1034 114.034 56.2519C118.739 54.1565 123.43 52.0221 128.093 49.8322C132.366 47.8258 136.591 45.7221 140.838 43.6657C141.187 43.4959 141.302 43.3151 141.207 42.8893C140.665 40.3849 141.218 38.1448 142.963 36.2331C143.276 35.8908 143.633 35.5903 143.971 35.2703V35.273ZM165.914 32.4486C165.869 32.0785 165.85 31.778 165.791 31.4858C165.408 29.524 164.998 27.5677 164.649 25.6004C164.571 25.1524 164.403 25.0689 164.001 25.0689C160.98 25.08 157.956 25.0744 154.934 25.0744C154.018 25.0744 153.717 25.3054 153.583 26.2042C153.303 28.0519 153.044 29.8996 152.787 31.7501C152.706 32.3345 152.815 32.4458 153.39 32.4458C157.389 32.4458 161.387 32.4458 165.386 32.4458H165.908L165.914 32.4486ZM33.6035 32.5766C33.6119 32.4319 33.6315 32.3568 33.6203 32.2872C33.2573 30.3031 32.8747 28.333 32.0174 26.4769C31.7354 25.8703 31.3696 25.6087 30.7497 25.6059C27.7646 25.5976 24.7823 25.5892 21.7972 25.6059C21.6548 25.6059 21.4146 25.8286 21.3839 25.9816C21.1382 27.2088 20.9148 28.4387 20.7137 29.6743C20.5601 30.6259 20.4512 31.5832 20.3144 32.585C24.8074 32.9523 29.1999 32.9078 33.6035 32.5766ZM103.501 32.635C107.837 32.8326 112.076 32.6239 116.368 32.4959C116.343 32.1342 116.36 31.8503 116.301 31.5832C115.882 29.652 115.452 27.7208 115.003 25.7952C114.972 25.6672 114.726 25.5058 114.581 25.5058C111.317 25.4891 108.052 25.4891 104.788 25.5058C104.634 25.5058 104.383 25.6588 104.344 25.7896C103.665 27.9879 103.545 30.2558 103.503 32.6378L103.501 32.635ZM99.4823 32.6712C99.1891 30.2837 98.8959 28.1048 98.2676 25.9816C98.1698 25.6532 97.9911 25.5586 97.6588 25.5586C94.4531 25.5447 91.2446 25.5197 88.0389 25.4863C87.6508 25.4807 87.5112 25.6477 87.4665 26.0039C87.2012 28.0241 86.9332 30.0416 86.6427 32.059C86.5729 32.5404 86.7293 32.6824 87.1984 32.6796C90.3846 32.6657 93.5735 32.6712 96.7597 32.6712C97.6365 32.6712 98.5105 32.6712 99.4851 32.6712H99.4823ZM149.132 32.4681C149.132 32.0618 149.176 31.7056 149.123 31.3661C148.855 29.652 148.531 27.9462 148.297 26.2265C148.213 25.6087 148.006 25.3611 147.367 25.3722C144.144 25.4278 140.922 25.4501 137.699 25.5058C137.565 25.5058 137.347 25.7061 137.32 25.8425C136.926 27.8182 136.543 29.7967 136.191 31.7808C136.063 32.4959 136.186 32.5877 136.909 32.5822C140.735 32.5432 144.56 32.507 148.386 32.4709C148.607 32.4709 148.83 32.4709 149.132 32.4709V32.4681ZM36.9851 32.7992C37.6051 32.7575 38.1049 32.699 38.6048 32.6963C40.6879 32.6851 42.771 32.699 44.8542 32.6879C46.4124 32.6796 47.9677 32.6323 49.5259 32.6323C50.0537 32.6323 50.1961 32.3874 50.1067 31.9394C49.9531 31.1908 49.7744 30.4478 49.6097 29.7021C49.3612 28.5751 49.0819 27.4537 48.892 26.3183C48.8194 25.8759 48.6854 25.7061 48.2442 25.695C45.9767 25.6365 43.7093 25.5169 41.4419 25.5113C40.5371 25.5113 39.6296 25.7395 38.7248 25.8842C38.144 25.9788 37.8759 26.3601 37.8145 26.9333C37.7363 27.6568 37.6246 28.3775 37.5213 29.0982C37.3482 30.2976 37.1722 31.4941 36.9824 32.7964L36.9851 32.7992ZM66.3642 32.6712C66.1575 31.0044 66.0151 29.5351 65.7722 28.0825C65.6633 27.4314 65.4064 26.7858 65.0964 26.1959C64.954 25.9232 64.5352 25.6338 64.2336 25.6254C61.3099 25.5586 58.3835 25.5447 55.457 25.5364C55.3006 25.5364 55.0605 25.6922 55.0018 25.8341C54.1948 27.8182 53.7173 29.8885 53.4576 32.0089C53.4018 32.4597 53.6084 32.6267 54.0748 32.6267C57.2078 32.6267 60.3382 32.6517 63.4712 32.6684C64.4039 32.674 65.3338 32.6684 66.3642 32.6684V32.6712ZM82.8423 32.6545C82.8423 32.3735 82.8618 32.2594 82.8395 32.1536C82.3899 30.075 81.9347 27.9963 81.4879 25.9148C81.4014 25.5169 81.1054 25.5002 80.7982 25.503C77.721 25.528 74.6437 25.5614 71.5665 25.5809C71.2118 25.5809 71.1364 25.7562 71.0973 26.0567C71.0108 26.7246 70.8963 27.3869 70.7762 28.0492C70.5528 29.2819 70.2624 30.5035 70.1004 31.7446C69.9832 32.6323 70.0641 32.6545 70.9605 32.6545C74.2276 32.6545 77.4948 32.6545 80.7619 32.6545C81.4349 32.6545 82.1051 32.6545 82.8423 32.6545ZM132.614 32.418C132.341 30.2169 132.221 28.0603 131.355 26.054C131.28 25.8759 130.967 25.6978 130.76 25.6922C128.079 25.6032 125.396 25.5364 122.715 25.4807C122.154 25.4696 121.587 25.5113 121.031 25.5865C120.875 25.6059 120.624 25.8286 120.624 25.9566C120.632 27.3869 120.152 28.7114 119.792 30.061C119.588 30.8263 119.367 31.6027 119.565 32.4152H132.617L132.614 32.418ZM16.8323 32.6824C16.8462 32.4625 16.8658 32.4013 16.8518 32.354C16.19 30.2364 15.5282 28.1187 14.8636 26.0011C14.7575 25.6644 14.5229 25.5503 14.1711 25.5781C13.5372 25.6282 12.8977 25.6699 12.2611 25.6755C9.95454 25.6922 7.648 25.7005 5.34425 25.6978C4.90026 25.6978 4.71596 25.887 4.67128 26.3239C4.54841 27.551 4.3697 28.7699 4.25521 29.997C4.16864 30.9181 4.1463 31.8448 4.08487 32.93C8.3852 32.8465 12.5962 32.7631 16.8323 32.6824ZM153.016 41.3783C153.169 38.5455 151.351 36.8425 149.377 36.2553C149.218 36.208 149.039 36.1385 148.886 36.1635C147.755 36.3555 146.565 36.3611 145.61 37.1542C145.44 37.2961 145.197 37.3462 145.027 37.4881C144.759 37.7107 144.46 37.9333 144.289 38.2255C143.695 39.244 143.393 40.3515 143.376 41.5369C143.34 44.0219 144.527 45.8195 146.657 46.5569C148.665 47.2526 150.413 46.646 151.709 45.185C152.619 44.1582 153.164 42.7836 153.013 41.3811L153.016 41.3783ZM51.1483 42.3662C51.1818 41.1223 50.8104 39.9647 50.3525 38.8377C50.2519 38.59 49.9866 38.3563 49.7381 38.2255C48.8138 37.733 47.8756 37.2599 46.9206 36.8314C45.8371 36.3444 44.7313 36.5614 43.9131 37.2822C42.8353 38.2338 41.9668 39.4165 41.4446 40.7856C40.6153 42.9644 41.5368 45.0626 43.6674 46.031C45.2144 46.735 46.7921 46.7461 48.3866 46.3065C48.8948 46.1673 49.4142 45.9336 49.8247 45.6108C50.8635 44.7927 51.1762 43.6351 51.1511 42.3634L51.1483 42.3662ZM20.7975 36.6004C19.3454 36.7173 17.7426 37.2794 17.0612 38.2005C15.961 39.6892 15.4975 41.42 15.8298 43.2316C16.1705 45.0737 17.5499 46.095 19.2254 46.7378C19.4236 46.8129 19.6749 46.8185 19.8872 46.7795C21.6157 46.4651 23.1683 45.7805 24.5505 44.6758C25.634 43.8104 25.6312 42.6416 25.5055 41.484C25.4217 40.6993 25.0811 39.9396 24.8465 39.1716C24.5673 38.2589 24.0088 37.566 23.1068 37.2404C22.3585 36.9705 21.5682 36.8091 20.7975 36.5976V36.6004ZM79.2708 41.3644C79.2624 44.1554 80.9071 46.2453 83.4594 46.5569C85.3163 46.7823 87.8854 45.5023 88.7091 43.8243C89.0191 43.1954 89.2146 42.4274 89.1894 41.7317C89.1057 39.2356 87.4888 37.3907 85.0427 36.7924C84.3641 36.6254 83.7302 36.631 83.0712 36.9121C82.3312 37.2265 81.5689 37.4853 80.7982 37.7218C80.2788 37.8804 79.9381 38.1726 79.8236 38.6958C79.6282 39.5835 79.4523 40.4767 79.268 41.3672L79.2708 41.3644ZM127.454 42.1881C127.44 40.5324 126.868 39.1327 125.725 37.9389C123.91 36.0439 121.313 35.8101 119.496 37.4853C118.219 38.6596 117.801 40.1901 118.027 41.9209C118.284 43.8939 119.068 45.505 120.936 46.4094C121.249 46.5597 121.665 46.6265 122.003 46.5625C122.886 46.4011 123.754 46.1562 124.62 45.9252C126.594 45.3993 127.473 44.2334 127.454 42.1853V42.1881ZM94.2884 66.8122C94.0063 66.7927 93.8388 66.7621 93.6713 66.7705C91.2167 66.8623 88.7594 66.9152 86.3076 67.0627C83.5208 67.2324 80.7396 67.5775 77.9416 67.2602C77.5534 67.2157 77.2462 67.391 77.1625 67.7583C76.9307 68.7573 76.738 69.7647 76.5481 70.772C76.4867 71.1004 76.6207 71.2951 76.9977 71.3174C77.989 71.3703 78.9803 71.5205 79.9716 71.5038C84.4339 71.4259 88.8962 71.3063 93.3585 71.1978C94.1516 71.1783 94.1488 71.1727 94.1879 70.3796C94.2158 69.8398 94.2688 69.2972 94.2828 68.7573C94.2995 68.1284 94.2856 67.4968 94.2856 66.815L94.2884 66.8122ZM85.7073 85.7429C87.3716 85.6094 89.0303 85.4702 90.6889 85.3478C91.1693 85.3116 91.3563 85.05 91.4457 84.6076C91.7529 83.1049 91.3424 81.8138 90.2645 80.7647C88.2903 78.8418 85.8469 78.4411 83.2388 78.8224C82.7808 78.8891 82.3257 79.3622 81.9822 79.7518C81.5913 80.1942 81.3288 80.7508 81.016 81.26C80.3793 82.2924 80.0778 83.4083 80.1699 84.6243C80.1923 84.9304 80.2872 85.089 80.6223 85.128C82.3117 85.32 83.9983 85.537 85.7045 85.7457L85.7073 85.7429ZM89.9378 87.7048H81.8593C81.904 89.2825 84.7802 96.3617 85.9223 97.703C87.2571 94.3777 88.5835 91.0746 89.9378 87.7048ZM8.63651 35.7878C8.73704 35.9409 8.75379 36.0049 8.79289 36.0216C10.2729 36.6978 11.7529 37.3823 13.2468 38.0251C13.3948 38.0891 13.702 37.9584 13.8528 37.8248C14.509 37.2516 15.1317 36.6366 15.7767 36.0522C15.9862 35.863 16.2347 35.7155 16.4637 35.5513C16.4469 35.4901 16.4302 35.4289 16.4106 35.3677C13.8444 35.5068 11.2809 35.6459 8.63372 35.7906L8.63651 35.7878ZM152.658 35.3037C153.376 36.055 153.968 36.7284 154.624 37.3295C154.789 37.4797 155.194 37.5131 155.426 37.4296C156.813 36.9204 158.185 36.3639 159.556 35.8157C159.801 35.7183 160.03 35.5791 160.402 35.3871C157.763 35.1311 155.3 34.992 152.656 35.3037H152.658ZM89.2481 75.5026C87.5475 75.6612 85.872 75.3022 84.2105 75.5861C84.2077 75.664 84.205 75.7391 84.1994 75.817C85.8748 76.009 87.5503 76.201 89.2453 76.3958V75.5026H89.2481ZM127.205 35.0894C127.189 35.1562 127.169 35.223 127.152 35.2897C127.624 35.5819 128.091 35.8825 128.568 36.1607C128.663 36.2164 128.828 36.2359 128.92 36.1913C129.361 35.9687 129.788 35.7183 130.221 35.479C130.213 35.4233 130.204 35.3677 130.196 35.312C129.196 35.2369 128.2 35.1645 127.2 35.0894H127.205ZM42.3131 35.4873H39.5821C39.5681 35.5458 39.5542 35.6042 39.5402 35.6654C39.9898 35.9771 40.4422 36.2887 40.9029 36.6087C41.3609 36.2442 41.7825 35.9075 42.3103 35.4901L42.3131 35.4873Z" fill="white"/>
<path d="M117.832 0C119.128 0.155831 120.382 0.453581 121.473 1.20769C122.04 1.59727 122.571 2.03972 123.152 2.48495C123.766 1.86998 124.383 1.24665 125.006 0.631674C125.123 0.517583 125.26 0.392361 125.411 0.345055C125.69 0.256009 125.927 0.26714 125.925 0.67898C125.916 2.98028 125.922 5.27879 125.922 7.57452C125.397 7.87505 125.118 7.68026 124.9 7.19607C124.129 5.48193 123.051 3.98205 121.58 2.79662C119.982 1.51101 118.19 0.890465 116.123 1.45814C115.087 1.74197 114.517 2.45434 114.434 3.51734C114.372 4.32432 114.813 5.10626 115.774 5.45132C116.986 5.8882 118.251 6.17204 119.496 6.50874C120.527 6.78701 121.574 7.0152 122.599 7.31295C127.156 8.62916 127.952 12.2829 127.128 15.5887C126.391 18.5439 123.691 20.2024 120.541 19.8295C118.586 19.5986 116.975 18.7276 115.573 17.4197C115.14 17.0162 114.841 17.0441 114.47 17.4782C114.006 18.018 113.509 18.53 113.001 19.0281C112.825 19.2007 112.577 19.3398 112.339 19.3927C112.23 19.4177 111.946 19.1979 111.943 19.0866C111.921 16.5654 111.926 14.0415 111.926 11.5176C112.493 11.3228 112.822 11.462 113.079 11.9879C113.853 13.5712 114.682 15.124 116.051 16.3066C117.486 17.5449 119.05 18.5217 121.015 18.5523C121.694 18.5634 122.398 18.4465 123.054 18.2657C123.867 18.0403 124.322 17.4392 124.4 16.5821C124.478 15.7501 124.157 15.0572 123.428 14.7094C122.61 14.3198 121.728 14.0499 120.848 13.8078C118.971 13.293 117.053 12.9145 115.204 12.319C113.702 11.8348 112.451 10.9026 111.904 9.32484C110.963 6.61727 111.231 4.09057 113.177 1.86719C114.093 0.820898 115.271 0.258791 116.654 0.105743C116.894 0.0779157 117.134 0.0361751 117.374 0C117.525 0 117.676 0 117.824 0L117.832 0ZM113.596 9.58641C113.845 10.1652 114.177 10.3405 114.663 10.3377C117.536 10.3294 120.409 10.335 123.283 10.3294C123.411 10.3294 123.543 10.2932 123.671 10.2737C123.685 10.1958 123.696 10.1207 123.71 10.0428C123.247 9.90364 122.789 9.66155 122.32 9.64207C120.633 9.58085 118.941 9.59198 117.251 9.58363C116.059 9.57807 114.864 9.58363 113.596 9.58363V9.58641ZM125.536 11.9072C125.394 11.3256 125.09 11.192 124.637 11.1948C121.881 11.2115 119.125 11.2143 116.369 11.2226C116.215 11.2226 116.062 11.2449 115.905 11.256C115.894 11.3256 115.883 11.3952 115.875 11.462C116.492 11.6094 117.109 11.871 117.729 11.8849C120.108 11.935 122.49 11.9044 124.872 11.9044C125.073 11.9044 125.277 11.9044 125.534 11.9044L125.536 11.9072ZM112.912 8.01697C112.923 8.54847 113.127 8.69317 113.557 8.68204C114.716 8.65421 115.875 8.67369 117.031 8.6709C117.156 8.6709 117.285 8.63751 117.542 8.60412C115.975 7.81383 114.456 7.93905 112.912 8.01975V8.01697ZM122.272 12.9034C122.275 12.9646 122.28 13.0231 122.283 13.0843C123.23 13.6074 125.126 13.8022 126.131 13.485C126.103 12.9535 126.106 12.9396 125.612 12.9229C124.995 12.9034 124.378 12.909 123.76 12.9034C123.263 12.9034 122.769 12.9034 122.272 12.9034ZM113.976 7.05137C113.987 6.43639 113.691 6.25552 112.909 6.40578C112.772 6.43083 112.661 6.57831 112.535 6.67014C112.649 6.79814 112.75 7.0152 112.881 7.03468C113.239 7.08476 113.61 7.05137 113.976 7.05137ZM126.229 14.7094C126.181 14.6648 126.137 14.6203 126.089 14.5758C125.838 14.5869 125.584 14.5981 125.333 14.6092L125.271 14.8346C125.5 14.9515 125.721 15.0934 125.964 15.1602C126.008 15.1713 126.137 14.868 126.229 14.7122V14.7094Z" fill="white"/>
<path d="M56.9068 19.2619H46.9797V18.1154C47.4572 18.0681 47.9543 18.0152 48.4513 17.9707C49.0601 17.9178 49.4426 17.5978 49.4957 16.994C49.5878 15.9532 49.6884 14.9125 49.6967 13.869C49.7219 10.7663 49.7191 7.66079 49.6967 4.55529C49.6911 3.94588 49.5683 3.33369 49.4538 2.73262C49.3533 2.20669 48.9707 1.95903 48.4513 1.90338C48.1525 1.86998 47.8537 1.83381 47.5549 1.80876C46.9713 1.75589 46.7284 1.39414 46.9574 0.845949C47.0048 0.731858 47.2478 0.640029 47.4014 0.640029C49.3728 0.612202 51.3415 0.570461 53.3129 0.598288C55.4128 0.626115 57.5155 0.676204 59.6098 0.812556C60.3945 0.865428 61.1903 1.11865 61.9275 1.41084C62.7736 1.74754 63.2595 2.48218 63.5192 3.34203C63.9576 4.79182 63.9716 6.25274 63.5834 7.71366C63.2539 8.96031 62.3939 9.75617 61.2992 10.3517C61.0563 10.4852 60.8078 10.6077 60.5201 10.7579C61.1568 12.7364 61.6343 14.7428 62.7262 16.5181C63.1394 17.1915 63.7231 17.7286 64.4854 17.9317C65.0578 18.0848 65.1891 18.3742 65.1081 18.8807C65.0913 18.9892 65.0858 19.1005 65.0662 19.2841C64.7479 19.2841 64.4351 19.2841 64.1224 19.2841C62.4693 19.2841 60.8189 19.2674 59.1658 19.2953C58.7358 19.3036 58.5431 19.1561 58.3951 18.7638C57.4764 16.3345 56.5326 13.9135 55.5943 11.4898C55.5329 11.334 55.4938 11.1531 55.3877 11.0334C55.2872 10.9221 55.1056 10.808 54.9744 10.8219C54.885 10.8303 54.7482 11.0585 54.7482 11.1893C54.7538 13.0203 54.7482 14.8513 54.818 16.6795C54.8515 17.5116 55.2062 17.8037 56.0411 17.9651C56.0607 17.9679 56.0774 17.9679 56.097 17.9707C57.0715 18.1544 57.0799 18.1711 56.9012 19.2619H56.9068ZM54.7343 5.66837C54.7343 6.7898 54.7203 7.90845 54.7482 9.02988C54.751 9.18849 54.9353 9.4612 55.0638 9.4779C56.3762 9.65042 57.6356 9.26919 58.1047 7.80549C58.5319 6.46979 58.5292 5.11462 58.1215 3.7817C57.7277 2.48496 56.6889 1.82268 55.3402 1.90338C54.9241 1.92842 54.7035 2.04251 54.7203 2.53227C54.7594 3.57578 54.7315 4.62208 54.7315 5.66837H54.7343Z" fill="white"/>
<path d="M81.9493 10.7496C82.5803 12.461 83.1667 14.1974 83.8593 15.8892C84.2949 16.9495 85.1159 17.6841 86.244 18.0458C86.3836 18.0904 86.526 18.2991 86.5595 18.4521C86.6126 18.697 86.5735 18.9641 86.5735 19.3036H84.1581C83.0327 19.3036 81.9018 19.2647 80.7792 19.3203C80.2375 19.3481 80.0169 19.1339 79.8438 18.6803C79.1149 16.7574 78.3638 14.8402 77.6154 12.9229C77.3837 12.3302 77.1491 11.7375 76.8698 11.167C76.7889 11 76.5571 10.9054 76.3923 10.7774C76.3086 10.9555 76.1522 11.1336 76.1522 11.3117C76.141 12.8644 76.1522 14.4172 76.1689 15.9672C76.1689 16.2287 76.1969 16.4903 76.236 16.7491C76.3393 17.4336 76.6548 17.7731 77.3362 17.9262C77.6657 17.9985 78.0008 18.0431 78.3777 18.1071V19.2702H68.5149V18.1043C68.9729 18.0681 69.4169 18.0236 69.8637 18.0013C70.4501 17.9707 70.8326 17.6618 70.9527 17.1164C71.0756 16.5543 71.1621 15.9727 71.1621 15.3995C71.1621 12.3329 71.123 9.26641 71.1035 6.19987C71.0979 5.4708 71.1119 4.74451 71.1035 4.01545C71.0728 2.18721 70.8326 1.91729 68.998 1.81155C68.5345 1.78372 68.4339 1.59728 68.4312 1.19657C68.4312 0.784727 68.6127 0.620548 69.0092 0.626113C73.0805 0.676202 77.1547 0.662288 81.2232 0.790293C83.7224 0.868208 85.074 2.23173 85.3002 4.71669C85.3756 5.55985 85.2974 6.4364 85.1522 7.27399C84.8925 8.79057 83.957 9.8146 82.5468 10.4212C82.41 10.4797 82.2704 10.5353 82.1336 10.5993C82.1 10.6132 82.0749 10.6466 81.9548 10.7468L81.9493 10.7496ZM76.1969 5.69342C76.1969 6.77589 76.2164 7.86114 76.1857 8.94361C76.1745 9.3638 76.3393 9.49737 76.7218 9.53077C78.1208 9.65599 79.1875 8.98536 79.6064 7.64687C80.0085 6.36127 79.9527 5.05061 79.5897 3.77892C79.2155 2.4627 78.0734 1.7865 76.6939 1.89503C76.3086 1.92564 76.1801 2.06477 76.1857 2.446C76.2052 3.52847 76.1913 4.61094 76.1913 5.6962L76.1969 5.69342ZM72.0836 14.6398C71.9636 15.1323 72.1618 15.3327 72.6142 15.3299C73.0051 15.3299 73.3989 15.3355 73.7898 15.3327C74.4013 15.3271 74.4293 15.2854 74.298 14.637H72.0836V14.6398ZM72.1479 11.9016H74.3232C74.4293 11.4286 74.2869 11.2393 73.8457 11.2644C73.4352 11.2894 73.0191 11.2894 72.6086 11.2644C72.1451 11.2366 71.9831 11.4035 72.1479 11.9016ZM74.3232 7.75818H72.0613C72.0864 7.99193 72.106 8.18394 72.1311 8.40934C72.7231 8.40934 73.2648 8.38429 73.801 8.41768C74.3036 8.44829 74.4321 8.23124 74.3232 7.75818ZM72.1199 13.5629H74.4656C74.3287 13.3152 74.2422 12.9952 74.1333 12.9897C73.4575 12.9424 72.779 12.9674 72.0641 12.9674C72.0892 13.2262 72.1032 13.3848 72.1199 13.5657V13.5629ZM72.0864 4.9727H74.2897V4.40503H72.0864V4.9727ZM74.312 6.13587C73.7088 6.10247 73.0973 6.0496 72.4857 6.05517C72.3545 6.05517 72.2261 6.27778 72.0976 6.40022C72.2288 6.51431 72.3517 6.71467 72.4941 6.7258C72.9577 6.76754 73.4296 6.7258 73.8987 6.74806C74.326 6.77032 74.4181 6.57553 74.3148 6.13865L74.312 6.13587ZM74.1835 16.8326C74.3204 16.3818 74.2561 16.1258 73.7228 16.1731C73.3346 16.2065 72.9409 16.2009 72.55 16.2009C72.1032 16.2009 72.0027 16.4152 72.1451 16.8354H74.1835V16.8326ZM74.2785 3.3949L74.4293 3.21124C74.298 3.07489 74.1724 2.83001 74.0327 2.82167C73.3654 2.77993 72.6952 2.80219 72.025 2.80219C71.9887 2.85784 71.9524 2.91628 71.9161 2.97193C72.0725 3.11107 72.2177 3.36151 72.3824 3.37264C73.0107 3.41995 73.6446 3.39212 74.2785 3.39212V3.3949ZM74.3287 9.34433H71.9189C72.106 9.59199 72.2065 9.85634 72.3266 9.86191C72.9912 9.90365 73.6586 9.88139 74.3315 9.88139V9.34433H74.3287ZM74.326 18.2128C74.3287 18.121 74.3315 18.0319 74.3343 17.9401C73.5413 17.7091 72.7175 17.7314 71.8965 17.7592C71.8407 17.7592 71.7262 17.9596 71.7513 18.0069C71.7988 18.0987 71.9273 18.1989 72.025 18.2017C72.4913 18.2212 72.9577 18.2128 73.424 18.2128C73.7256 18.2128 74.0244 18.2128 74.326 18.2128ZM71.6927 1.50823C72.2903 1.99799 74.0914 1.96459 74.3567 1.50823H71.6927Z" fill="white"/>
<path d="M13.4484 1.87552V0.692871H22.9733C22.9928 0.776352 23.0208 0.84592 23.0236 0.915487C23.0654 1.82821 23.0654 1.83656 22.1551 2.00631C20.5132 2.3124 19.1393 3.11661 17.9609 4.26586C17.0338 5.16746 16.1291 6.09132 15.2355 7.02631C15.1126 7.15431 14.9981 7.45484 15.0652 7.58006C16.4586 10.2459 17.7208 12.9841 19.5945 15.38C20.7812 16.8966 22.2696 17.8566 24.2271 18.1488V19.2452H13.0546V18.1265C13.3032 18.1098 13.5405 18.0987 13.7779 18.0736C14.3866 18.0096 14.5625 17.7564 14.3838 17.1693C13.9063 15.6137 13.0742 14.2391 12.1694 12.9062C11.812 12.3802 11.4378 11.8682 11.0553 11.3256C10.4102 11.7764 9.97459 12.2467 10.0584 13.1176C10.1477 14.0248 10.0667 14.9487 10.0584 15.8642C10.036 17.6312 10.695 18.1961 12.0577 18.0903C12.1275 18.0848 12.2001 18.1154 12.3007 18.1321V19.3231C11.1949 19.3231 10.1086 19.3231 9.02516 19.3231C7.07326 19.3203 5.11857 19.3119 3.16667 19.3064C2.10555 19.3036 2.06925 19.2591 2.31219 18.0792C2.66124 18.0792 3.02984 18.0931 3.39844 18.0792C4.33669 18.0375 4.80023 17.6646 4.88959 16.7352C5.00129 15.5636 5.06551 14.3866 5.07668 13.2095C5.09064 11.32 5.04876 9.43334 5.02083 7.54389C4.99849 6.08019 4.98453 4.61648 4.90914 3.15835C4.86725 2.35693 4.52099 2.07587 3.73353 2.00352C3.28674 1.96178 2.83995 1.92283 2.35687 1.8783V0.71235H12.7475V1.87552C12.2867 1.92004 11.826 1.99518 11.3624 2.00631C10.7397 2.02022 10.3823 2.31519 10.2427 2.90234C10.1812 3.15556 10.0891 3.41157 10.0863 3.66758C10.0751 5.87427 10.0779 8.08095 10.0779 10.2988C10.1477 10.3043 10.2203 10.3322 10.2482 10.3099C12.2532 8.71819 14.1856 7.05135 15.3249 4.6944C15.5343 4.26308 15.6153 3.72602 15.6013 3.24461C15.579 2.50719 15.121 2.10927 14.3866 2.01187C14.0906 1.97291 13.7946 1.92839 13.4484 1.8783V1.87552ZM5.6966 6.7536H7.9445V6.07184C7.31062 6.07184 6.69629 6.07184 6.08195 6.07184C5.59328 6.07184 5.50672 6.31393 5.6966 6.7536ZM5.42853 13.0342C5.6212 13.3069 5.73011 13.613 5.85856 13.6213C6.55666 13.6686 7.26035 13.6436 8.00872 13.6436C7.99755 13.3931 7.98918 13.2206 7.9808 13.0314H5.42573L5.42853 13.0342ZM5.63237 8.42601C6.3612 8.42601 7.01741 8.4427 7.67084 8.41209C7.79091 8.40653 7.95287 8.22287 7.99476 8.0893C8.0171 8.01138 7.84118 7.78042 7.74903 7.77485C7.04255 7.74703 6.33606 7.76094 5.5849 7.76094C5.60445 8.00303 5.61562 8.18113 5.63517 8.42601H5.63237ZM5.60724 15.2631H7.9417V14.6704H5.56815C5.58211 14.9014 5.59328 15.0628 5.60724 15.2631ZM7.95008 4.39665H5.61841V5.00328H7.95008V4.39665ZM7.93891 11.8933C8.06457 11.5037 7.98918 11.2699 7.53122 11.2727C7.04534 11.2727 6.55946 11.2783 6.07358 11.2727C5.64354 11.2671 5.50392 11.4592 5.64634 11.896H7.93891V11.8933ZM5.71335 16.9383C6.36957 16.9383 6.99787 16.9522 7.62616 16.9244C7.7211 16.9188 7.88027 16.724 7.88027 16.6155C7.88027 16.507 7.7211 16.3122 7.62616 16.3066C6.99787 16.2788 6.36678 16.2927 5.71335 16.2927V16.9411V16.9383ZM5.7329 3.43662C6.31372 3.43662 6.85545 3.41714 7.39439 3.44218C7.84397 3.46444 8.02827 3.30305 7.92216 2.8272H5.7329V3.43383V3.43662ZM7.92774 9.44447H5.63237C5.60445 9.96484 5.60445 9.97041 6.02052 9.97875C6.52595 9.9871 7.03138 9.96206 7.53401 9.9871C7.93053 10.0066 8.03944 9.8424 7.92774 9.44447ZM5.3643 18.2072H8.06457C8.08691 18.1543 8.10646 18.1015 8.1288 18.0458C7.98359 17.9679 7.84397 17.8343 7.69318 17.8204C6.31931 17.7035 5.56815 17.826 5.3643 18.2044V18.2072ZM8.19582 1.57221H5.64913C6.50361 2.00631 7.80208 2.02579 8.19582 1.57221Z" fill="white"/>
<path d="M130.47 0.581543H146.661V7.67744C146.094 7.96406 145.876 7.59952 145.633 7.17933C144.829 5.79076 143.916 4.48568 142.796 3.31416C141.498 1.9562 139.942 1.64454 138.147 1.9562V8.81278C138.775 8.96305 139.292 8.70704 139.772 8.38424C140.593 7.83605 141.135 7.04576 141.537 6.17199C141.724 5.76572 141.956 5.65998 142.358 5.75459C142.799 5.85755 142.617 6.2026 142.617 6.44192C142.631 8.50112 142.626 10.5575 142.626 12.6167V13.2206C142.045 13.382 141.699 13.2679 141.473 12.7058C141.054 11.6623 140.333 10.8581 139.283 10.4045C138.957 10.2626 138.582 10.2292 138.141 10.1234V17.9206C140.099 18.2489 141.729 17.5783 143.031 16.2148C143.941 15.2603 144.673 14.1361 145.471 13.0787C145.65 12.8421 145.79 12.5722 145.929 12.3079C146.102 11.9851 146.393 11.8849 146.683 12.0324C146.84 12.1131 146.988 12.383 146.988 12.5694C147.004 14.6258 146.988 16.685 146.988 18.7415C146.988 19.1644 146.759 19.2869 146.379 19.2841C145.552 19.2757 144.726 19.2841 143.899 19.2841C139.655 19.2841 135.41 19.2841 131.163 19.2841C130.94 19.2841 130.713 19.2841 130.434 19.2841V18.0875C130.92 18.0291 131.403 17.9679 131.886 17.9178C132.492 17.8538 132.855 17.531 132.925 16.9271C132.995 16.3344 133.076 15.7389 133.079 15.1434C133.092 11.551 133.087 7.95849 133.084 4.36602C133.084 2.1009 132.788 1.81428 130.468 1.84489V0.581543H130.47Z" fill="white"/>
<path d="M107.578 0.601106C107.578 0.868245 107.626 1.11869 107.564 1.33852C107.511 1.53331 107.377 1.80045 107.215 1.8561C106 2.29021 105.42 3.19737 105.174 4.39393C104.802 6.18877 104.886 8.00031 104.95 9.81464C105.017 11.7264 104.942 13.6214 104.395 15.483C103.604 18.1655 101.94 19.5458 99.145 19.7739C97.9386 19.8713 96.7407 19.9159 95.5874 19.4734C93.9343 18.8417 92.9933 17.5672 92.4599 15.9422C91.907 14.2586 91.9238 12.5111 91.907 10.7747C91.8847 8.6626 91.9573 6.55053 91.9433 4.43845C91.9405 3.84852 91.7925 3.2558 91.6752 2.67144C91.5943 2.26238 91.3122 2.0342 90.8822 1.99524C90.603 1.9702 90.3237 1.92289 90.0445 1.89785C89.0839 1.81158 88.9526 1.60566 89.2514 0.615019H99.7509C99.723 1.03521 99.6979 1.41644 99.6699 1.81436C99.0975 1.8728 98.5614 1.92289 98.0252 1.98689C97.584 2.03976 97.2796 2.29577 97.2154 2.72709C97.087 3.58973 96.9194 4.46072 96.9138 5.32892C96.8971 8.49007 96.9222 11.6512 96.9725 14.8096C96.9808 15.3773 97.1037 15.97 97.2992 16.507C97.9303 18.2518 99.441 18.8529 101.147 18.0932C102.097 17.6702 102.669 16.9022 103.06 15.9811C103.699 14.4645 103.783 12.8533 103.819 11.2449C103.861 9.41393 103.859 7.58013 103.814 5.74911C103.797 5.08682 103.66 4.41063 103.465 3.77339C103.147 2.73266 102.443 2.05089 101.323 1.85889C101.234 1.84497 101.15 1.79767 101.075 1.76984C100.932 0.589975 100.932 0.573279 102.069 0.562148C103.778 0.548234 105.487 0.559365 107.193 0.562148C107.302 0.562148 107.408 0.581627 107.575 0.59554L107.578 0.601106Z" fill="white"/>
<path d="M33.4365 18.132V19.2813H26.0896C25.9081 18.3018 25.9025 18.2879 26.7375 17.8816C27.564 17.4809 28.1979 16.8882 28.5526 16.045C29.999 12.6223 31.4343 9.19399 32.8613 5.76292C33.5566 4.09052 34.2128 2.40142 34.9221 0.734576C35.0282 0.486915 35.3353 0.158556 35.5364 0.166904C35.7514 0.175252 36.0446 0.503611 36.1451 0.754055C38.125 5.69614 40.0992 10.6438 42.0343 15.6026C42.5817 17.005 43.4026 17.9929 45.0278 18.0986V19.2646H34.5926V18.1654C35.0114 18.0792 35.4359 18.0096 35.8491 17.9039C36.5584 17.7202 36.7846 17.3445 36.5752 16.6628C36.3741 16.0033 36.1563 15.3438 35.9022 14.7037C35.8408 14.5507 35.5978 14.3782 35.4331 14.3754C34.062 14.3503 32.6909 14.367 31.3226 14.3559C30.8703 14.3531 30.6915 14.5284 30.6943 14.9931C30.7139 16.9577 31.4343 17.8204 33.4393 18.1265L33.4365 18.132ZM33.2606 8.16996C33.1963 8.16161 33.1293 8.15048 33.0651 8.14213C32.434 9.77836 31.8001 11.4118 31.1495 13.0981H35.1873C34.5311 11.4174 33.8972 9.79506 33.2606 8.16996Z" fill="white"/>
<path d="M160.115 17.9151C162.083 18.2741 163.628 17.545 165.001 16.2789C166.174 15.1964 167.02 13.8774 167.808 12.5139C167.883 12.3859 167.947 12.2078 168.062 12.1577C168.252 12.0742 168.486 12.0352 168.69 12.0658C168.766 12.077 168.852 12.3358 168.852 12.4805C168.863 14.7038 168.861 16.9244 168.861 19.1951H152.452V18.0848C152.913 18.018 153.388 17.929 153.865 17.8845C154.48 17.826 154.82 17.4977 154.926 16.9105C154.979 16.6183 155.038 16.3206 155.035 16.0228C155.03 12.0018 155.018 7.98083 155.005 3.96261C155.005 3.75669 154.979 3.55355 154.965 3.34763C154.89 2.19003 154.58 1.88393 153.416 1.80879C152.706 1.76242 152.382 1.36542 152.444 0.617798H162.79C162.809 0.826501 162.818 0.973984 162.84 1.1159C162.918 1.61401 162.734 1.83662 162.206 1.79766C161.93 1.77819 161.648 1.85054 161.368 1.88671C160.796 1.96184 160.444 2.3069 160.324 2.84118C160.207 3.36711 160.101 3.90974 160.098 4.4468C160.081 8.82399 160.087 13.1984 160.09 17.5756C160.09 17.6674 160.103 17.7593 160.115 17.9123V17.9151ZM158.02 14.5758H156.054C156.024 14.6259 155.993 14.676 155.962 14.7261C156.082 14.8903 156.191 15.1825 156.328 15.1964C156.873 15.252 157.426 15.2186 157.99 15.2186C158.001 14.971 158.009 14.8096 158.023 14.5758H158.02ZM156.163 7.02636C156.708 7.02636 157.191 7.04863 157.674 7.00967C157.794 7.00132 157.992 6.7954 157.987 6.68966C157.981 6.56444 157.797 6.35852 157.68 6.35017C157.185 6.31121 156.686 6.33347 156.166 6.33347V7.02358L156.163 7.02636ZM158.099 3.06101H155.979C156.013 3.29476 156.041 3.48955 156.066 3.67599C157.828 3.7539 158.177 3.79565 158.099 3.06101ZM155.901 4.61654C156.091 4.90873 156.189 5.22596 156.32 5.23709C156.889 5.29274 157.467 5.26213 158.04 5.26213C158.079 5.20369 158.121 5.14247 158.16 5.08404C158.023 4.92821 157.895 4.65272 157.744 4.6388C157.191 4.58593 156.63 4.61654 155.901 4.61654ZM156.127 11.2199C156.08 11.2644 156.032 11.3089 155.985 11.3535C156.105 11.5204 156.214 11.8154 156.35 11.8293C156.901 11.885 157.456 11.8516 158.004 11.8516C158.026 11.2338 158.026 11.2282 157.585 11.2227C157.099 11.2143 156.613 11.2227 156.127 11.2227V11.2199ZM157.951 16.2204H156.041V16.8465C156.552 16.8465 157.032 16.827 157.509 16.8521C157.99 16.8744 158.104 16.6684 157.951 16.2204ZM157.981 9.58645C157.47 9.58645 157.007 9.60036 156.546 9.58367C156.018 9.56419 155.99 9.80907 156.169 10.1931H157.981V9.58645ZM157.998 8.63198C158.087 8.18119 157.981 7.98361 157.56 8.00866C157.188 8.03092 156.811 7.98918 156.443 8.02814C156.311 8.04205 156.2 8.2118 156.077 8.30919C156.189 8.41772 156.292 8.60972 156.409 8.61529C156.926 8.64868 157.448 8.6292 157.995 8.6292L157.998 8.63198ZM156.175 12.9229L156.001 13.0843C156.127 13.2485 156.242 13.5351 156.384 13.5518C156.917 13.6075 157.456 13.5741 157.99 13.5741C158.112 13.126 158.045 12.8979 157.574 12.9201C157.107 12.9424 156.641 12.9257 156.175 12.9257V12.9229ZM155.719 1.80879C155.689 1.85054 155.661 1.89228 155.63 1.93402C155.753 2.03976 155.859 2.2095 155.999 2.23733C156.725 2.38481 158.04 2.13437 158.213 1.80879H155.719ZM155.7 17.8622C155.708 17.9401 155.719 18.0208 155.728 18.0987C156.359 18.0987 156.99 18.0876 157.621 18.1015C158.048 18.1099 158.085 17.9234 157.928 17.5728C157.171 17.6674 156.404 17.5728 155.7 17.8594V17.8622Z" fill="white"/>
</g>
<defs>
<clipPath id="clip0_236_42">
<rect width="169" height="102" fill="white"/>
</clipPath>
</defs>
</svg>
